STARTFONT 2.1
COMMENT This font image translated from Metafont
COMMENT Input file was ``bnr10''
COMMENT DPI was ``300'', usermag ``1000'', blackness ``3''
COMMENT shrink was 1
FONT -*-bengali-medium-r-*-*-*-300-*-*-*-*-*-fontspecific
SIZE 10 300 300
FONTBOUNDINGBOX 76 52 -24 -12
STARTPROPERTIES 4
FONT_ASCENT 40
FONT_DESCENT 4
COPYRIGHT "GNU General Public License"
_XMBDFED_INFO "Edited with xmbdfed 4.5."
ENDPROPERTIES
CHARS 249
STARTCHAR C001
ENCODING 1
SWIDTH 504 0
DWIDTH 21 0
BBX 25 40 -3 -3
BITMAP
80000000
80000000
80000000
E0000000
7FFF0000
1FFFE000
0000F000
00001800
00000800
00000400
00000400
1FFFFF80
1FFFFF80
00200000
00100000
001F8000
007FE000
00F83000
01F00800
01E00C00
00000C00
00000C00
00001C00
00001800
00003800
00007000
0301E000
01FFC000
007F0000
00300000
00080000
00060000
00010000
0000C000
00002000
00001000
00000800
00000400
00000200
00000100
ENDCHAR
STARTCHAR C002
ENCODING 2
SWIDTH 600 0
DWIDTH 25 0
BBX 27 37 -1 -1
BITMAP
80000000
40000000
78000000
3FFFC000
07FFF800
00003C00
00000600
00000200
00000100
00000100
7FFFFFE0
7FFFFFE0
04000000
02000000
03C00000
0FE00000
1F100000
1F080700
1F0C0F00
0E043F00
00067E00
0007E600
0007CE00
000F0C00
001E0C00
001C0C00
00780C00
00F00C00
13C00C00
0F800C00
06000C00
00000C00
00000C00
00000C00
00000400
00000600
00000200
ENDCHAR
STARTCHAR C003
ENCODING 3
SWIDTH 600 0
DWIDTH 25 0
BBX 30 35 -4 2
BITMAP
80000000
80000000
40000000
7C000000
3FFFF000
03FFFE00
00000F80
000001C0
00000040
00000020
00000020
0FFFFFFC
0FFFFFFC
00008000
00008000
02008000
02008000
02008000
02008000
02008080
020081C0
03008360
01008E20
0100FC30
0180F010
00800010
00800010
00C00010
00400030
00600020
00300060
001800C0
000E0380
0007FF00
0001FC00
ENDCHAR
STARTCHAR C004
ENCODING 4
SWIDTH 648 0
DWIDTH 27 0
BBX 29 34 -1 2
BITMAP
80000000
40000000
78000000
3FFFE000
07FFFC00
00001F00
00000380
00000080
00000040
00000040
7FFFFFF8
7FFFFFF8
00010000
00010000
11010000
11010000
11010000
11010000
11010180
19010380
098106C0
08811C40
0C81F860
0481E020
06C00020
02400020
03600020
01200060
01B00040
00D800C0
007C0180
003F0F00
000FFC00
0003F000
ENDCHAR
STARTCHAR C005
ENCODING 5
SWIDTH 720 0
DWIDTH 30 0
BBX 25 27 2 -1
BITMAP
70080000
F81CC180
F836C180
F863C180
70C3C180
3F8FC180
1F3CC180
00F0C180
01C0C180
0380C180
0F00C180
1C00C180
3800C180
3800C180
1E00C180
0780C180
01C0E180
0060F980
0030DD80
0018C780
000CC380
0006C180
0003C180
0003C080
0001C000
0001C000
0000C000
ENDCHAR
STARTCHAR C006
ENCODING 6
SWIDTH 648 0
DWIDTH 27 0
BBX 21 27 3 -1
BITMAP
0003C0
000FE0
001E10
003818
007018
00E018
00C018
01C018
01F818
41FC18
C1FC18
80FC18
80FC18
807818
800018
800018
C00018
400018
600018
380018
1FFF98
07FFF8
000078
000018
000018
000018
000008
ENDCHAR
STARTCHAR C007
ENCODING 7
SWIDTH 768 0
DWIDTH 32 0
BBX 28 39 3 -1
BITMAP
00600000
00C00000
01800000
01800000
01800000
01C00000
01E00000
00F80000
007FF800
001FFF00
00001FC0
000003E0
0003C0E0
000FE070
001E1070
00381830
00701830
00E01820
00C01820
01C01860
01F818C0
41FC1F80
C1FC1E00
81FC1800
80FC1800
80781800
80001800
80001800
C0001800
40001800
60001800
38001800
1FFF9800
07FFF800
00007800
00001800
00001800
00001800
00000800
ENDCHAR
STARTCHAR C008
ENCODING 8
SWIDTH 576 0
DWIDTH 24 0
BBX 21 24 1 2
BITMAP
001F80
007FE0
00F070
01C018
C38018
C7C018
C7C018
C7C030
C387F0
C00FE0
600FC0
600FC0
600FE0
3007B0
300030
180018
180018
0C0018
0C0018
060030
030070
01C1E0
00FFC0
003F00
ENDCHAR
STARTCHAR C014
ENCODING 14
SWIDTH 288 0
DWIDTH 12 0
BBX 13 26 0 0
BITMAP
FFF8
FFF8
0180
0300
0300
0300
0600
0600
0600
0600
0600
0600
0600
0300
0300
0300
0300
0300
0300
0300
0300
0300
0600
0600
0C00
3800
ENDCHAR
STARTCHAR C015
ENCODING 15
SWIDTH 0 0
DWIDTH 0 0
BBX 21 9 -24 -4
BITMAP
800000
800008
800008
C00008
600008
3FFFE8
1FFFF8
000018
000008
ENDCHAR
STARTCHAR C016
ENCODING 16
SWIDTH 600 0
DWIDTH 25 0
BBX 26 29 0 -3
BITMAP
FFFFFFC0
FFFFFFC0
00E01800
00E00800
00F00C00
00D00C00
01D80C00
018C0C00
23861C00
3F03F800
0E07F000
003FE000
007C1000
007C0800
00780C00
00000C00
00000C00
00001C00
00803800
0060F000
003FE000
000F8000
00030000
0000C000
00002000
00001800
00000400
00000200
00000100
ENDCHAR
STARTCHAR C017
ENCODING 17
SWIDTH 624 0
DWIDTH 26 0
BBX 27 27 0 -1
BITMAP
FFFFFFE0
FFFFFFE0
00300200
00780300
00680180
006C0180
00E60180
00C30180
31C1C380
1F807F00
0F001E00
00000600
00000600
00000600
00000600
00000600
00FE0600
03FF8600
07E1E600
07E07600
07E01E00
07E00E00
03C00600
00000600
00000600
00000600
00000200
ENDCHAR
STARTCHAR C018
ENCODING 18
SWIDTH 1152 0
DWIDTH 48 0
BBX 49 27 0 -1
BITMAP
FFFFF003F01F80
FFFFF81FFC1F80
00700C7C0E1800
007804E0031800
006807F0039800
00EC07F807D800
00C6060C1E7800
11C30E043C3800
1F81FC06701800
0F007806E01800
00000007C01800
0000000F801800
0000000E001800
0000001C001800
00000008001800
00000000001800
00000000001800
00000000001800
00000000001800
00000000001800
00000000001800
00000000001800
00000000001800
00000000001800
00000000001800
00000000001800
00000000000800
ENDCHAR
STARTCHAR C019
ENCODING 19
SWIDTH 1152 0
DWIDTH 48 0
BBX 49 27 0 -1
BITMAP
FFFFF003F01F80
FFFFF81FFC1F80
00700C7C0E1800
007804E0031800
006807F0039800
00EC07F807D800
00C6060C1E7800
11C30E043C3800
1F81FC06701800
0F007806E01800
00000007C01800
0000000F801800
0000000E001800
0000001C001800
00000008001800
00000003E3D800
00000007FFF800
0000000C1C3800
00000018041800
00000017041800
0000001F801800
0000001F801800
0000000F801800
00000007001800
00000000001800
00000000001800
00000000000800
ENDCHAR
STARTCHAR C020
ENCODING 20
SWIDTH 1008 0
DWIDTH 42 0
BBX 43 27 0 -1
BITMAP
FFFFFFFFFFE0
FFFFFFFFFFE0
007018000000
007008000000
00700C000000
00F80C00F000
00C80C00FC00
00CC0C00CE00
11C61C00C300
1F83FB00C100
0700F180C100
000000C0C100
000001C0C100
00000380CF00
00000700DF00
00000E00DF00
00000C00CE00
00001C00C000
00000F00C000
000001C0C000
00000070C000
00000018C000
00000004C000
00000002C000
00000001C000
00000001C000
00000000C000
ENDCHAR
STARTCHAR C021
ENCODING 21
SWIDTH 624 0
DWIDTH 26 0
BBX 27 27 0 -1
BITMAP
FFFFFFE0
FFFFFFE0
00300200
00780300
00680180
006C0180
00E60180
00C30180
31C1C380
1F807F00
0F001E00
00000600
00001E00
0000FE00
0007E600
001F0600
003C0600
00F00600
00FE0600
000F8600
0001C600
0000F600
00003E00
00001E00
00000E00
00000600
00000600
ENDCHAR
STARTCHAR C022
ENCODING 22
SWIDTH 768 0
DWIDTH 32 0
BBX 33 27 0 -1
BITMAP
FFFFFFFF80
FFFFFFFF80
0030021800
0078031800
0068019800
006C019800
00E6019800
00C3019800
31C1C39800
1F807F1800
0F001E1800
00000C1800
0000061800
0000061800
0000061800
00007E1800
0000FF9800
0000FFD800
0000FE7800
0000FE3800
00007C1800
0000001800
0000001800
0000001800
0000001800
0000001800
0000000800
ENDCHAR
STARTCHAR C023
ENCODING 23
SWIDTH 624 0
DWIDTH 26 0
BBX 27 27 0 -1
BITMAP
FFFFFFE0
FFFFFFE0
00300200
00780300
00680180
006C0180
00E60180
00C30180
31C1C380
1F807F00
0F001E00
00000600
00000600
00000600
00000600
00F8F600
01FFFE00
03070E00
06010600
05C10600
07E00600
07E00600
03E00600
01C00600
00000600
00000600
00000200
ENDCHAR
STARTCHAR C024
ENCODING 24
SWIDTH 504 0
DWIDTH 21 0
BBX 22 29 0 -3
BITMAP
FFFFFC
FFFFFC
010000
00F800
03FE00
07C300
0FC080
0F80C0
0F00C0
0000C0
0001C0
000380
0C0F00
07FE00
01F800
006000
001800
000400
000300
01F180
07FDC0
0F07A0
1E0180
1E0180
1E0180
0E0180
000180
000180
000180
ENDCHAR
STARTCHAR C025
ENCODING 25
SWIDTH 744 0
DWIDTH 31 0
BBX 32 26 0 0
BITMAP
FFFFFFFF
FFFFFFFF
00003000
00003000
00007000
0003F1C0
000F33E0
001C33F0
007033F8
01C033F8
038031D8
06003018
0C003018
1C003830
0F003FE0
03C037C0
00E03000
00383000
001C3000
00063000
00033000
0061B000
00F0F000
00F07000
00607000
00003000
ENDCHAR
STARTCHAR C026
ENCODING 26
SWIDTH 696 0
DWIDTH 29 0
BBX 30 26 0 0
BITMAP
FFFFFFFC
FFFFFFFC
00003000
00003000
00007000
0003F000
000F3000
001C3700
00703D80
01C030C0
038030C0
060030C0
0C0030C0
1C0030C0
0F0030C0
03C030C0
00E030C0
003830C0
001C30C0
000630C0
000330C0
0061B0C0
00F0F0C0
00F070C0
00607060
00003000
ENDCHAR
STARTCHAR C027
ENCODING 27
SWIDTH 552 0
DWIDTH 23 0
BBX 24 29 0 -3
BITMAP
FFFFFF
FFFFFF
000000
000000
07C0C0
0FE1E0
1C13B0
1E0B10
1F0718
1F0618
1F0018
0E0018
000038
000030
000070
0000E0
0C07C0
0FFF80
03FC00
00E000
003800
000C00
000700
0001C0
000060
000030
00001C
000006
000003
ENDCHAR
STARTCHAR C028
ENCODING 28
SWIDTH 672 0
DWIDTH 28 0
BBX 29 29 0 -3
BITMAP
FFFFFFF8
FFFFFFF8
00800000
00800000
00FC0000
03FF0000
07C18000
0F804E00
0F007B00
00006180
00006180
0000E180
0000C180
0001C180
00038180
180F0180
0FFE0180
07F80180
01C00180
00600180
00380180
000C0180
00070180
00018180
0000C180
00006180
00003800
00000C00
00000400
ENDCHAR
STARTCHAR C029
ENCODING 29
SWIDTH 696 0
DWIDTH 29 0
BBX 24 25 2 1
BITMAP
00F810
03FE38
078738
0601BC
CFC0FC
CFE066
CE3026
C03006
C03006
C03006
606076
60E0FC
61C0FC
3080FC
3000FE
180076
180003
0C0003
0C0003
060003
030006
01C00E
00F03C
003FF8
000FE0
ENDCHAR
STARTCHAR C030
ENCODING 30
SWIDTH 720 0
DWIDTH 30 0
BBX 25 25 2 1
BITMAP
F81F0800
7E3F9C00
0770DC00
01E07E00
C1F07600
C3F83300
C7FC3300
CFFE0300
CFFE0300
CFBE0300
6F1E7F00
6000FE00
6000FC00
3000FE00
3000FF00
18007B00
18000180
0C000180
0C000180
06000180
03000300
01C00700
00F01E00
003FFC00
000FF000
ENDCHAR
STARTCHAR C031
ENCODING 31
SWIDTH 648 0
DWIDTH 27 0
BBX 28 26 0 0
BITMAP
FFFFFFF0
FFFFFFF0
01000000
01000000
01F00000
07FC3C00
0F867E00
0F81C300
0F018180
00018F80
00019F80
00039F80
00031F80
00070F00
181E0000
0FFC0000
03F00000
00800000
00600000
00100000
00080000
00040000
00030000
00008000
00004000
00002000
ENDCHAR
STARTCHAR C032
ENCODING 32
SWIDTH 408 0
DWIDTH 17 0
BBX 0 0 0 0
BITMAP
ENDCHAR
STARTCHAR C033
ENCODING 33
SWIDTH 600 0
DWIDTH 25 0
BBX 5 34 16 -5
BITMAP
30
78
78
78
78
78
78
78
78
78
78
78
78
78
78
78
78
78
78
78
78
78
30
30
00
00
00
00
70
F8
F8
F8
F8
70
ENDCHAR
STARTCHAR C034
ENCODING 34
SWIDTH 456 0
DWIDTH 19 0
BBX 15 15 2 19
BITMAP
7C78
FEFC
FEFE
FEFE
FEFE
7E7E
0606
0E0E
0C0C
1C1C
1818
3838
3070
70E0
60C0
ENDCHAR
STARTCHAR C035
ENCODING 35
SWIDTH 552 0
DWIDTH 23 0
BBX 19 32 2 -6
BITMAP
004100
00E300
00C300
00C300
00C300
00C700
01C600
018600
018600
018600
018E00
038C00
FFFFE0
FFFFE0
030C00
031C00
071800
061800
FFFFE0
FFFFE0
063800
063000
0E3000
0C3000
0C3000
0C3000
0C7000
1C6000
186000
186000
186000
186000
ENDCHAR
STARTCHAR C036
ENCODING 36
SWIDTH 648 0
DWIDTH 27 0
BBX 22 37 3 -3
BITMAP
001800
001800
001800
003800
003000
003000
007000
006000
006000
006000
00E000
00C000
00C000
01C000
018000
018000
038000
030000
030000
071FFC
061FFC
060000
0E0000
0C0000
0C0000
1C0000
180000
180000
380000
300000
300000
700000
600000
600000
E00000
C00000
C00000
ENDCHAR
STARTCHAR C037
ENCODING 37
SWIDTH 696 0
DWIDTH 29 0
BBX 25 38 2 -4
BITMAP
1E000600
33000600
61801E00
61E06C00
619F9C00
C0C03800
C0C03000
C0C07000
C0C06000
C0C0E000
C0C0C000
C0C1C000
C0C18000
61838000
61830000
61870000
330E0000
1E0C0000
001C0000
00180000
00383C00
00306600
0070C300
0060C300
00E0C300
00C18180
01C18180
01818180
03818180
07018180
06018180
0E018180
0C00C300
1C00C300
1800C300
38006600
30003C00
20000000
ENDCHAR
STARTCHAR C038
ENCODING 38
SWIDTH 480 0
DWIDTH 20 0
BBX 19 31 2 -4
BITMAP
0F8000
1FC3E0
3C23E0
7C3300
783300
703300
003300
007300
C1E300
7FC300
1F0300
040300
030300
008300
004300
003300
000B00
000700
000F00
007F00
01F300
078300
0E0300
0F8300
01C300
00F300
003B00
001F00
000F00
000700
000200
ENDCHAR
STARTCHAR C039
ENCODING 39
SWIDTH 288 0
DWIDTH 12 0
BBX 7 15 3 19
BITMAP
78
FC
FC
FE
FE
7E
06
06
0E
0C
1C
18
38
70
60
ENDCHAR
STARTCHAR C040
ENCODING 40
SWIDTH 288 0
DWIDTH 12 0
BBX 8 41 3 -8
BITMAP
01
02
06
06
0C
0C
18
18
38
38
30
70
70
70
70
60
E0
E0
E0
E0
E0
E0
E0
E0
E0
E0
E0
60
70
70
70
30
38
18
18
0C
0C
04
06
02
01
ENDCHAR
STARTCHAR C041
ENCODING 41
SWIDTH 288 0
DWIDTH 12 0
BBX 9 41 1 -8
BITMAP
8000
4000
6000
7000
3000
3800
1800
1C00
1C00
1E00
0E00
0E00
0F00
0F00
0F00
0700
0780
0780
0780
0780
0780
0780
0780
0780
0780
0780
0780
0700
0F00
0F00
0E00
0E00
1E00
1C00
1C00
3800
3000
3000
6000
4000
8000
ENDCHAR
STARTCHAR C042
ENCODING 42
SWIDTH 480 0
DWIDTH 20 0
BBX 16 21 2 13
BITMAP
0180
0180
0180
0180
4182
E187
799E
1DB8
0FF0
07E0
03C0
07E0
0FF0
1DB8
799E
E187
4182
0180
0180
0180
0180
ENDCHAR
STARTCHAR C043
ENCODING 43
SWIDTH 672 0
DWIDTH 28 0
BBX 26 27 1 -1
BITMAP
00040000
000C0000
000C0000
000C0000
000C0000
000C0000
000C0000
000C0000
000C0000
000C0000
000C0000
000C0000
000C0000
FFFFFFC0
FFFFFFC0
000C0000
000C0000
000C0000
000C0000
000C0000
000C0000
000C0000
000C0000
000C0000
000C0000
000C0000
000C0000
ENDCHAR
STARTCHAR C044
ENCODING 44
SWIDTH 360 0
DWIDTH 15 0
BBX 7 15 6 -9
BITMAP
78
FC
FC
FE
FE
7E
06
0E
0C
1C
18
38
70
60
60
ENDCHAR
STARTCHAR C045
ENCODING 45
SWIDTH 360 0
DWIDTH 15 0
BBX 13 3 1 10
BITMAP
FFF8
FFF8
FFF8
ENDCHAR
STARTCHAR C046
ENCODING 46
SWIDTH 504 0
DWIDTH 21 0
BBX 2 27 16 -1
BITMAP
80
C0
C0
C0
C0
C0
C0
C0
C0
C0
C0
C0
C0
C0
C0
C0
C0
C0
C0
C0
C0
C0
C0
C0
C0
C0
40
ENDCHAR
STARTCHAR C047
ENCODING 47
SWIDTH 288 0
DWIDTH 12 0
BBX 11 32 1 -6
BITMAP
0040
00E0
00C0
00C0
01C0
0180
0180
0380
0300
0300
0300
0700
0600
0600
0E00
0C00
0C00
1C00
1800
1800
1800
3800
3000
3000
7000
6000
6000
E000
C000
C000
C000
C000
ENDCHAR
STARTCHAR C048
ENCODING 48
SWIDTH 528 0
DWIDTH 22 0
BBX 18 19 2 3
BITMAP
03F000
0FFC00
1E0E00
380300
300180
600180
6000C0
C000C0
C000C0
C000C0
C000C0
C000C0
C00180
600180
600300
300700
1C1E00
0FFC00
03F000
ENDCHAR
STARTCHAR C049
ENCODING 49
SWIDTH 528 0
DWIDTH 22 0
BBX 16 25 3 1
BITMAP
2000
6000
E000
C000
C000
C000
6000
3800
1E00
0700
01C0
00F0
0038
000C
0006
0006
0003
0003
0003
03E3
07F6
0FFE
0FFC
0FF8
07C0
ENDCHAR
STARTCHAR C050
ENCODING 50
SWIDTH 528 0
DWIDTH 22 0
BBX 17 27 3 -2
BITMAP
600000
600000
300000
1C0000
060000
038000
00E000
003800
000C00
000600
000600
000600
000600
C00C00
F03800
7FE000
3C0000
0E0000
070000
01C000
00E000
003000
001800
000C00
000600
000300
000180
ENDCHAR
STARTCHAR C051
ENCODING 51
SWIDTH 528 0
DWIDTH 22 0
BBX 18 19 2 2
BITMAP
800000
800000
80FC00
81FE00
81FB00
C1F980
41F880
41F8C0
60F040
200040
300040
100040
180040
0800C0
0C0080
060180
038700
01FE00
007800
ENDCHAR
STARTCHAR C052
ENCODING 52
SWIDTH 528 0
DWIDTH 22 0
BBX 16 27 3 -1
BITMAP
03E0
0FF8
183C
200E
4007
C003
C003
C003
C003
E002
7004
3C18
1FF0
07E0
0FF8
183C
200E
4007
C003
C003
C003
C003
E002
7004
3C18
1FF0
07C0
ENDCHAR
STARTCHAR C053
ENCODING 53
SWIDTH 528 0
DWIDTH 22 0
BBX 20 27 1 -1
BITMAP
004000
00E000
01E000
03E000
072000
0E1000
1C0E00
1803E0
3800F0
3001C0
700380
600700
E00600
C00E00
C00C00
C01C00
C01800
C01800
401800
601800
601800
201800
100800
0C0C00
078400
01FF00
003F80
ENDCHAR
STARTCHAR C054
ENCODING 54
SWIDTH 528 0
DWIDTH 22 0
BBX 18 22 2 2
BITMAP
060000
070000
810000
818000
808000
808000
808000
808180
808380
C08680
409CC0
40F840
606040
200040
200040
300040
1000C0
180080
0C0180
070700
03FE00
00F800
ENDCHAR
STARTCHAR C055
ENCODING 55
SWIDTH 528 0
DWIDTH 22 0
BBX 17 27 3 -1
BITMAP
03C000
0FE000
1E1000
381800
700800
600C00
E00C00
C00C00
C00400
603E00
3FFE00
0FEC00
000C00
000C00
000C00
000C00
000400
000600
000600
000600
000600
000600
000600
000600
000200
000100
000080
ENDCHAR
STARTCHAR C056
ENCODING 56
SWIDTH 528 0
DWIDTH 22 0
BBX 18 25 2 1
BITMAP
800000
C00000
C00000
600000
600000
600000
600000
600000
600000
600040
7FC7C0
7FFF80
603800
601800
601800
601800
601800
603000
603000
606000
606000
60C000
638000
3F0000
1C0000
ENDCHAR
STARTCHAR C057
ENCODING 57
SWIDTH 528 0
DWIDTH 22 0
BBX 17 27 3 -1
BITMAP
400000
C00000
C00000
E00000
600000
700000
380000
1C0000
0F0000
07C000
01E000
007800
003C00
000E00
000700
000300
000380
1F8180
3FC180
40E180
C06180
F07180
F83100
F83300
F83200
703C00
003800
ENDCHAR
STARTCHAR C058
ENCODING 58
SWIDTH 408 0
DWIDTH 17 0
BBX 6 20 8 2
BITMAP
78
FC
FC
FC
FC
78
00
00
00
00
00
00
00
78
FC
FC
FC
FC
FC
78
ENDCHAR
STARTCHAR C059
ENCODING 59
SWIDTH 360 0
DWIDTH 15 0
BBX 7 23 6 -9
BITMAP
78
FC
FC
FC
FC
78
00
00
78
FC
FC
FE
FE
7E
06
0E
0C
1C
18
38
70
60
60
ENDCHAR
STARTCHAR C060
ENCODING 60
SWIDTH 744 0
DWIDTH 31 0
BBX 12 27 16 -1
BITMAP
8020
C030
C030
C030
C030
C030
C030
C030
C030
C030
C030
C030
C030
C030
C030
C030
C030
C030
C030
C030
C030
C030
C030
C030
C030
C030
4010
ENDCHAR
STARTCHAR C061
ENCODING 61
SWIDTH 696 0
DWIDTH 29 0
BBX 25 11 2 6
BITMAP
FFFFFF80
FFFFFF80
00000000
00000000
00000000
00000000
00000000
00000000
00000000
FFFFFF80
FFFFFF80
ENDCHAR
STARTCHAR C062
ENCODING 62
SWIDTH 504 0
DWIDTH 21 0
BBX 22 29 0 -3
BITMAP
FFFFFC
FFFFFC
010000
00F800
03FE00
07C300
0FC080
0F80C0
0F00C0
0000C0
0001C0
000380
0C0F00
07FE00
01F800
006000
001800
000400
000300
000180
000FC0
007FA0
01F180
038180
03F180
007D80
001F80
000780
000380
ENDCHAR
STARTCHAR C063
ENCODING 63
SWIDTH 792 0
DWIDTH 33 0
BBX 15 31 16 -3
BITMAP
0FE0
3818
600C
F006
F806
F806
F806
7006
000C
000C
0018
0030
0060
00C0
0180
0180
0300
0300
0300
0300
0300
0300
0000
0000
0000
0780
0FC0
0FC0
0FC0
0FC0
0780
ENDCHAR
STARTCHAR C064
ENCODING 64
SWIDTH 648 0
DWIDTH 27 0
BBX 28 29 0 -3
BITMAP
FFFFFFF0
FFFFFFF0
000C0000
000C0000
000C0000
0F0E0000
3FCE0000
7CEE0000
7C3E0180
7C1E0F80
380E3980
000EE180
000F8180
000F0300
000E0300
00000300
00000300
00000F00
00003F00
0000F300
0007C300
0007C300
0000F300
00003B00
00001F00
00000F00
00000700
00000300
00000300
ENDCHAR
STARTCHAR C065
ENCODING 65
SWIDTH 288 0
DWIDTH 12 0
BBX 13 28 0 -1
BITMAP
0400
C7F8
E7F8
3600
1E00
0E00
0600
0600
0600
0600
0600
0600
0600
0600
0600
0600
0600
0600
0600
0600
0600
0600
0600
0600
0600
0600
0600
0200
ENDCHAR
STARTCHAR C066
ENCODING 66
SWIDTH 528 0
DWIDTH 22 0
BBX 17 27 3 -1
BITMAP
03C000
0FE000
1C3000
301000
701000
583000
8FE000
87C000
800000
800000
C00000
400000
600000
300000
1C0000
0E0000
038000
01E000
007800
001C00
000600
000300
000100
000180
000080
000080
000080
ENDCHAR
STARTCHAR C067
ENCODING 67
SWIDTH 552 0
DWIDTH 23 0
BBX 24 29 0 -3
BITMAP
FFFFFF
FFFFFF
180000
180000
180000
1E0000
1BCF00
18FF80
181C40
181820
183830
187030
19E030
0FC070
070060
0000E0
0003C0
001F80
0FFE00
0FF000
007C00
000E00
000380
0001C0
000060
000038
00001C
000006
000003
ENDCHAR
STARTCHAR C068
ENCODING 68
SWIDTH 600 0
DWIDTH 25 0
BBX 26 24 0 2
BITMAP
FFFFFFC0
FFFFFFC0
00080000
00080000
20080000
20080000
20080000
20080000
20080800
20081C00
30083600
1008E200
100FC300
180F0100
08000100
08000100
0C000100
04000300
06000200
03000600
01800C00
00E03800
007FF000
001FC000
ENDCHAR
STARTCHAR C069
ENCODING 69
SWIDTH 312 0
DWIDTH 13 0
BBX 19 38 -5 -1
BITMAP
800000
800000
C00000
700000
3FE000
0FFC00
001E00
000300
000180
000080
000080
07FFE0
07FFE0
000300
000600
000C00
000C00
001800
003000
003000
006000
006000
006000
00C000
00C000
00C000
00C000
00C000
00C000
00C000
00C000
006000
006000
006000
0030C0
001DE0
000FE0
0003C0
ENDCHAR
STARTCHAR C070
ENCODING 70
SWIDTH 552 0
DWIDTH 23 0
BBX 24 27 0 -1
BITMAP
FFFFFF
FFFFFF
780030
0E0030
030030
008030
006030
003030
007830
00F630
01C330
0380B0
070070
0E0030
1C0030
1F8030
03E030
007030
001C30
000E30
000330
0001B0
0000F0
000070
000030
000030
000010
ENDCHAR
STARTCHAR C071
ENCODING 71
SWIDTH 552 0
DWIDTH 23 0
BBX 24 27 0 -1
BITMAP
FFFFFF
FFFFFF
180030
380030
300030
300030
300030
100030
081830
07FC30
03F830
00E030
01C030
038030
070030
0F0030
07C030
00F030
003830
000E30
000730
0001B0
0000F0
000070
000030
000030
000010
ENDCHAR
STARTCHAR C072
ENCODING 72
SWIDTH 360 0
DWIDTH 15 0
BBX 9 24 3 2
BITMAP
1C00
7E00
E300
C100
C180
C180
4180
6380
3F00
1C00
0000
0000
0000
0000
1C00
7E00
E300
C100
C180
C180
4180
6380
3F00
1C00
ENDCHAR
STARTCHAR C073
ENCODING 73
SWIDTH 240 0
DWIDTH 10 0
BBX 30 39 -19 -1
BITMAP
0FFE0000
3FFFC000
7001F000
C0003800
80000C00
80000600
C0000300
70000100
3FFE0180
0FFF8080
0001C0C0
00004040
000047FC
000047FC
000000C0
000000C0
000000C0
000000C0
000000C0
000000C0
000000C0
000000C0
000000C0
000000C0
000000C0
000000C0
000000C0
000000C0
000000C0
000000C0
000000C0
000000C0
000000C0
000000C0
000000C0
000000C0
000000C0
000000C0
00000040
ENDCHAR
STARTCHAR C074
ENCODING 74
SWIDTH 672 0
DWIDTH 28 0
BBX 29 27 0 -1
BITMAP
FFFFC1F8
FFFFE1F8
00006180
00006180
0003E180
0007E180
001C6180
00786180
00E06180
01806180
03006180
06006180
0C006180
1C006180
0F006180
03C06180
00E07180
00307980
00186D80
000C6780
00066380
00036180
00036180
0001E080
0000E000
0000E000
00006000
ENDCHAR
STARTCHAR C075
ENCODING 75
SWIDTH 624 0
DWIDTH 26 0
BBX 26 28 1 -1
BITMAP
00000800
00100FC0
003C0FC0
007E0C00
78E30C00
FDC18C00
FF818C00
FF018C00
FE018C00
78030C00
00070C00
001E0C00
007C0C00
03F00C00
07C00C00
07E00C00
00F80C00
001E0C00
00070C00
00018C00
0000CC00
00006C00
00003C00
00003C00
00001C00
00000C00
00000C00
00000400
ENDCHAR
STARTCHAR C076
ENCODING 76
SWIDTH 744 0
DWIDTH 31 0
BBX 32 27 0 -1
BITMAP
FFFFFFFF
FFFFFFFF
08000C00
0C000C00
04000C00
1FC00C00
3FF00FC0
3F3FFFF0
3F0FFC30
3F040C30
1E060C30
00060C30
00060C30
00060C30
007E0C30
00FC0C30
00FF8C30
00FFCC30
00FC6C30
00783C30
00001C30
00001C30
00000C30
00000C30
00000C00
00000C00
00000400
ENDCHAR
STARTCHAR C077
ENCODING 77
SWIDTH 408 0
DWIDTH 17 0
BBX 11 26 4 0
BITMAP
1E00
7F00
E100
C180
C180
C180
4380
7F00
3C00
0000
0000
8000
C000
E000
7000
3800
1C00
0E00
0700
0300
0180
01C0
00C0
0060
0020
0020
ENDCHAR
STARTCHAR C078
ENCODING 78
SWIDTH 528 0
DWIDTH 22 0
BBX 21 28 2 -1
BITMAP
000100
07C1F8
1FF1F8
3C1980
700D80
600780
E00380
C00380
C00180
C70180
4F8180
6F8180
3F8180
1F0180
000180
000180
000180
000180
000180
000180
000180
000180
000180
000180
000180
000180
000180
000080
ENDCHAR
STARTCHAR C079
ENCODING 79
SWIDTH 240 0
DWIDTH 10 0
BBX 30 37 -19 -1
BITMAP
80000000
40000000
78000000
3FFFC000
07FFFC00
00003F00
00000380
00000080
00000040
00000040
000007FC
000007FC
000000C0
000000C0
000000C0
000000C0
000000C0
000000C0
000000C0
000000C0
000000C0
000000C0
000000C0
000000C0
000000C0
000000C0
000000C0
000000C0
000000C0
000000C0
000000C0
000000C0
000000C0
000000C0
000000C0
000000C0
00000040
ENDCHAR
STARTCHAR C080
ENCODING 80
SWIDTH 792 0
DWIDTH 33 0
BBX 29 28 2 -1
BITMAP
00010000
0F818000
3FC183C0
70618FE0
F0219C30
F831B010
F831E008
7031C008
00718008
006180D0
00E181F0
01C181E0
078180F0
1E018010
3801C008
3E01E008
0781B008
01C19810
00618E30
003187E0
001981C0
000D8000
00078000
00078000
00038000
00018000
00018000
00008000
ENDCHAR
STARTCHAR C081
ENCODING 81
SWIDTH 888 0
DWIDTH 37 0
BBX 32 27 3 -1
BITMAP
0007C000
001FE000
003C3000
00703000
00E0307C
00C031FE
01C0330F
01803607
01F83C03
41FC3803
C1FC3803
81FC303A
80FC307E
8078307C
8000307E
8000383B
C0003803
40003C03
60003C03
38003606
1FFF338E
07FFF1FC
0000F078
00003000
00003000
00003000
00001000
ENDCHAR
STARTCHAR C082
ENCODING 82
SWIDTH 600 0
DWIDTH 25 0
BBX 26 32 0 -6
BITMAP
FFFFFFC0
FFFFFFC0
00080000
00080000
20080000
20080000
20080000
20080000
20080800
20081C00
30083600
1008E200
100FC300
180F0100
08000100
08000100
0C000100
04000300
06000200
03000600
01800C00
00E03800
007FF000
001FC000
00000000
00000000
00000000
00070000
000F8000
000F8000
000F8000
00070000
ENDCHAR
STARTCHAR C083
ENCODING 83
SWIDTH 576 0
DWIDTH 24 0
BBX 26 28 -1 -1
BITMAP
00000800
E0000FC0
780F0FC0
1C3FCC00
0678EC00
03E03C00
01C03C00
07F01C00
0FF80C00
1FFC0C00
3FFE0C00
3FFE0C00
3F7E0C00
1C1C0C00
00000C00
00000C00
00000C00
00000C00
00000C00
00000C00
00000C00
00000C00
00000C00
00000C00
00000C00
00000C00
00000C00
00000400
ENDCHAR
STARTCHAR C084
ENCODING 84
SWIDTH 480 0
DWIDTH 20 0
BBX 24 36 -3 1
BITMAP
800000
800000
800000
E00000
7FFE00
1FFFC0
0001E0
000030
000010
000008
000008
1FFFFF
1FFFFF
030000
030000
030000
030000
030000
030000
030000
0300E0
0301F0
0301F8
0301F8
0300F8
030018
030030
030030
030060
0300E0
0301C0
030380
018F00
019E00
00F800
007000
ENDCHAR
STARTCHAR C085
ENCODING 85
SWIDTH 0 0
DWIDTH 0 0
BBX 18 13 -11 -12
BITMAP
1F0000
7F0000
E00000
800000
800000
C08000
7FC000
3F7000
003800
000E00
000700
000180
0000C0
ENDCHAR
STARTCHAR C086
ENCODING 86
SWIDTH 480 0
DWIDTH 20 0
BBX 21 32 0 -6
BITMAP
FFFFF8
FFFFF8
180000
180000
180000
180000
180000
180000
180000
180700
180F80
180FC0
180FC0
1807C0
1800C0
180180
180180
180300
180700
180E00
181C00
0C7800
0CF000
07C000
038000
000000
000000
038000
07C000
07C000
07C000
038000
ENDCHAR
STARTCHAR C087
ENCODING 87
SWIDTH 0 0
DWIDTH 0 0
BBX 11 10 -10 -9
BITMAP
0600
0E00
3C00
7800
E000
7800
1E00
0780
01E0
0060
ENDCHAR
STARTCHAR C088
ENCODING 88
SWIDTH 480 0
DWIDTH 20 0
BBX 21 25 0 1
BITMAP
FFFFF8
FFFFF8
180000
180000
180000
180000
180000
180000
180000
180700
180F80
180FC0
180FC0
1807C0
1800C0
180180
180180
180300
180700
180E00
181C00
0C7800
0CF000
07C000
038000
ENDCHAR
STARTCHAR C089
ENCODING 89
SWIDTH 552 0
DWIDTH 23 0
BBX 24 27 0 -1
BITMAP
FFFFFF
FFFFFF
780030
0E0030
030030
008030
006030
003030
007030
00F030
01C030
038030
070030
0E0030
1C0030
1F8030
03E030
007030
001C30
000E30
000330
0001B0
0000F0
000070
000030
000030
000010
ENDCHAR
STARTCHAR C090
ENCODING 90
SWIDTH 504 0
DWIDTH 21 0
BBX 22 39 0 1
BITMAP
018000
038000
030000
030000
030000
030000
010000
018000
008000
00C000
004000
006000
002000
003000
FFFFFC
FFFFFC
001C00
001C00
001A00
001B00
001900
001980
003880
0030C0
003040
007060
00E060
00C060
01C060
038060
070060
0E00E0
1C00C0
1801C0
180180
080380
060F00
03FE00
00F800
ENDCHAR
STARTCHAR C091
ENCODING 91
SWIDTH 192 0
DWIDTH 8 0
BBX 7 42 2 -8
BITMAP
FE
FE
FE
E0
E0
E0
E0
E0
E0
E0
E0
E0
E0
E0
E0
E0
E0
E0
E0
E0
E0
E0
E0
E0
E0
E0
E0
E0
E0
E0
E0
E0
E0
E0
E0
E0
E0
E0
E0
FE
FE
FE
ENDCHAR
STARTCHAR C092
ENCODING 92
SWIDTH 456 0
DWIDTH 19 0
BBX 15 15 2 19
BITMAP
060C
0E1C
1C18
3838
3030
7070
6060
E0E0
C0C0
FCFC
FEFE
FEFE
FEFE
7EFE
3C7C
ENDCHAR
STARTCHAR C093
ENCODING 93
SWIDTH 192 0
DWIDTH 8 0
BBX 6 42 0 -8
BITMAP
FC
FC
FC
FC
1C
1C
1C
1C
1C
1C
1C
1C
1C
1C
1C
1C
1C
1C
1C
1C
1C
1C
1C
1C
1C
1C
1C
1C
1C
1C
1C
1C
1C
1C
1C
1C
1C
1C
1C
FC
FC
FC
ENDCHAR
STARTCHAR C094
ENCODING 94
SWIDTH 0 0
DWIDTH 0 0
BBX 18 10 -7 27
BITMAP
0001C0
000300
000E00
003800
00F000
01C000
078000
1E0000
3C0000
F00000
ENDCHAR
STARTCHAR C095
ENCODING 95
SWIDTH 0 0
DWIDTH 0 0
BBX 9 8 -4 -11
BITMAP
8000
C000
7000
3800
0C00
0600
0380
0180
ENDCHAR
STARTCHAR C096
ENCODING 96
SWIDTH 288 0
DWIDTH 12 0
BBX 7 15 2 19
BITMAP
0C
1C
18
38
70
60
E0
C0
C0
FC
FE
FE
FE
7E
3C
ENDCHAR
STARTCHAR C097
ENCODING 97
SWIDTH 792 0
DWIDTH 33 0
BBX 34 27 0 -1
BITMAP
FFFFFFFFC0
FFFFFFFFC0
0060000C00
0010000C00
200FC00C00
303FF00C00
107E380C00
107E0C0C00
187E060C00
087E020C00
0C3C030C00
0400010C00
0600010C00
0200010C00
0300010C00
0180030C00
0080030C00
00C0038C00
0060028C00
003006CC00
001C1C6C00
000FF83C00
0003E01C00
0000001C00
0000000C00
0000000C00
0000000400
ENDCHAR
STARTCHAR C098
ENCODING 98
SWIDTH 504 0
DWIDTH 21 0
BBX 22 26 0 0
BITMAP
FFFFFC
FFFFFC
0000C0
0000C0
0001C0
0007C0
001CC0
0070C0
00C0C0
0380C0
0600C0
0C00C0
3800C0
3800C0
1E00C0
0780C0
01E0C0
0070C0
0018C0
000CC0
0006C0
0003C0
0001C0
0001C0
0000C0
000040
ENDCHAR
STARTCHAR C099
ENCODING 99
SWIDTH 480 0
DWIDTH 20 0
BBX 21 25 0 1
BITMAP
FFFFF8
FFFFF8
180000
1C0000
1C0000
1E0000
1B0000
19C000
18F000
183E00
180F80
1801C0
1800C0
1800C0
180180
180180
180180
180300
180700
180E00
181C00
0C7800
0CF000
07C000
038000
ENDCHAR
STARTCHAR C100
ENCODING 100
SWIDTH 480 0
DWIDTH 20 0
BBX 21 27 0 -1
BITMAP
FFFFF8
FFFFF8
300000
300000
300000
300000
300080
3003C0
300FC0
303D80
307380
31E300
338300
370300
3E0700
3C0600
300600
000600
000600
000600
000600
000600
000600
000200
000300
000300
000100
ENDCHAR
STARTCHAR C101
ENCODING 101
SWIDTH 312 0
DWIDTH 13 0
BBX 14 27 0 -1
BITMAP
FFFC
FFFC
0060
00C0
0180
0180
0300
0600
0600
0C00
0C00
0C00
1800
1800
1800
1800
1800
1800
1800
1800
0C00
0C00
0C00
0618
03BC
01FC
0078
ENDCHAR
STARTCHAR C102
ENCODING 102
SWIDTH 672 0
DWIDTH 28 0
BBX 29 27 0 -1
BITMAP
FFFFFFF8
FFFFFFF8
38000000
0E000000
03000000
00803C00
00407F00
00206380
007060C0
00E06040
01C06040
01806740
03806FC0
07006FC0
0E006F80
0F806700
01C06000
00706000
00386000
000C6000
00066000
00036000
0001E000
0000E000
0000E000
00006000
00002000
ENDCHAR
STARTCHAR C103
ENCODING 103
SWIDTH 552 0
DWIDTH 23 0
BBX 23 28 1 -1
BITMAP
000040
00007E
07F07E
1FFC60
3C0660
700160
6000E0
FF80E0
FFC060
F02060
403060
003060
003060
007060
00E060
00C060
01C060
038060
010060
000060
000060
000060
000060
000060
000060
000060
000060
000020
ENDCHAR
STARTCHAR C104
ENCODING 104
SWIDTH 504 0
DWIDTH 21 0
BBX 22 29 0 -3
BITMAP
FFFFFC
FFFFFC
010000
008000
00FC00
03FF00
07C180
0F8040
0F0060
000060
000060
0000E0
0000C0
0001C0
000380
180F00
0FFE00
07F800
018000
00E000
003000
001C00
000600
000300
0001C0
000060
000030
000018
00000C
ENDCHAR
STARTCHAR C105
ENCODING 105
SWIDTH 264 0
DWIDTH 11 0
BBX 26 39 0 -1
BITMAP
01FE0000
07FFC000
0F00E000
1C001800
18000C00
38000200
30000100
30000080
300000C0
30000040
10000000
18000000
FFF00000
FFF00000
06000000
06000000
06000000
06000000
06000000
06000000
06000000
06000000
06000000
06000000
06000000
06000000
06000000
06000000
06000000
06000000
06000000
06000000
06000000
06000000
06000000
06000000
06000000
06000000
02000000
ENDCHAR
STARTCHAR C106
ENCODING 106
SWIDTH 696 0
DWIDTH 29 0
BBX 30 26 0 0
BITMAP
FFFFFFFC
FFFFFFFC
00300000
00700000
40C80000
418E00C0
4107FFE0
4301FF40
420000C0
42000080
62018180
2303C100
21866100
30FC2100
10783100
18001100
08001100
0C001100
06003100
03002180
01E06080
007FC080
001F8080
000000C0
00000040
00000040
ENDCHAR
STARTCHAR C107
ENCODING 107
SWIDTH 696 0
DWIDTH 29 0
BBX 30 26 0 0
BITMAP
FFFFFFFC
FFFFFFFC
00006000
00006000
0000F800
0003FE00
000E6700
00386180
006060C0
01C06040
03006060
06006020
1C006020
1C0063A0
0F0067E0
03C067C0
00F067C0
00386380
000C6000
00066000
00036000
0001E000
0000E000
0000E000
00006000
00002000
ENDCHAR
STARTCHAR C108
ENCODING 108
SWIDTH 624 0
DWIDTH 26 0
BBX 27 27 0 -1
BITMAP
FFFFFFE0
FFFFFFE0
00000600
00000600
00000600
00000600
00000600
01E0E600
07F9F600
0E1F1E00
18060E00
10020600
10020600
10E20600
11F00600
19F00600
0FF00600
07E00600
00000600
00000600
00000600
00000600
00000600
00000600
00000600
00000600
00000200
ENDCHAR
STARTCHAR C109
ENCODING 109
SWIDTH 552 0
DWIDTH 23 0
BBX 24 27 0 -1
BITMAP
FFFFFF
FFFFFF
300030
300030
300030
100030
080030
040030
020030
010030
008030
004030
006030
002030
003030
03F030
07F030
07FC30
07F730
07F0B0
03E070
000030
000030
000030
000030
000030
000010
ENDCHAR
STARTCHAR C110
ENCODING 110
SWIDTH 528 0
DWIDTH 22 0
BBX 23 27 0 -1
BITMAP
FFFFFE
FFFFFE
000060
000060
000060
000060
000060
000060
000060
000060
000060
0FE060
1FF860
1F9C60
1F8660
1F8360
0F01E0
0000E0
0000E0
000060
000060
000060
000060
000060
000060
000060
000020
ENDCHAR
STARTCHAR C111
ENCODING 111
SWIDTH 672 0
DWIDTH 28 0
BBX 25 36 1 2
BITMAP
00600000
00400000
00C00000
00C00000
00C00000
00E00000
00F00000
007F0000
003FF800
0003FE00
00001F00
00000780
001FC380
00FFF180
01F03980
03800D80
C3C00D00
C3E00F00
C3E00E00
C3E01E00
C1C7BC00
C00FF800
600FF000
600FE000
600FF000
30079800
30000C00
30000C00
18000C00
18000C00
0C000C00
06001800
03003800
01C0F000
00FFE000
003F8000
ENDCHAR
STARTCHAR C112
ENCODING 112
SWIDTH 600 0
DWIDTH 25 0
BBX 25 28 1 -1
BITMAP
00001000
00001F80
01F81F80
07FE1800
1E071800
7C019800
FE01D800
4307F800
010F3800
019C1800
01B81800
01F01800
03E01800
03801800
07001800
00001800
00001800
00001800
00001800
00001800
00001800
00001800
00001800
00001800
00001800
00001800
00001800
00000800
ENDCHAR
STARTCHAR C113
ENCODING 113
SWIDTH 624 0
DWIDTH 26 0
BBX 22 26 2 2
BITMAP
0007C0
001FE0
003C30
303030
186030
0C6070
C763E0
C3FFC0
C0FE00
C0C000
C0C020
C0C030
60C078
60C1F8
60C7D8
307F8C
303C0C
30000C
18000C
18000C
0C000C
060018
030038
01C0F0
00FFE0
003F80
ENDCHAR
STARTCHAR C114
ENCODING 114
SWIDTH 504 0
DWIDTH 21 0
BBX 22 27 0 -1
BITMAP
FFFFFC
FFFFFC
0000C0
0000C0
0001C0
0007C0
001CC0
0070C0
00C0C0
0380C0
0600C0
0C00C0
3800C0
3800C0
1E00C0
0780C0
01E0C0
0070C0
0018C0
000CC0
0006C0
0003C0
01C1C0
03E1C0
03E0C0
03E040
01C000
ENDCHAR
STARTCHAR C115
ENCODING 115
SWIDTH 600 0
DWIDTH 25 0
BBX 26 27 0 -1
BITMAP
FFFFFFC0
FFFFFFC0
3F000C00
03800C00
00C00C00
00600C00
00200C00
00300C00
00100C00
001B8C00
000FCC00
000E2C00
001C1C00
00380C00
10700C00
08E00C00
07C00C00
03800C00
00000C00
00000C00
00000C00
00000C00
00000C00
00000C00
00000C00
00000C00
00000400
ENDCHAR
STARTCHAR C116
ENCODING 116
SWIDTH 600 0
DWIDTH 25 0
BBX 26 24 0 2
BITMAP
FFFFFFC0
FFFFFFC0
00000000
00000000
40000000
40000000
600FC000
201FF000
203FB800
303F8C00
103F8400
101F0600
180E0200
08000200
0C000200
04000200
06000200
02000600
03000400
01800C00
00C01800
00707000
003FE000
000F8000
ENDCHAR
STARTCHAR C117
ENCODING 117
SWIDTH 0 0
DWIDTH 0 0
BBX 17 13 -12 -12
BITMAP
008000
008000
7C8000
FF8000
838000
81C000
FF6000
7E3800
001C00
000600
000300
000180
000080
ENDCHAR
STARTCHAR C118
ENCODING 118
SWIDTH 624 0
DWIDTH 26 0
BBX 27 24 0 2
BITMAP
FFFFFFE0
FFFFFFE0
00000000
00000000
40000000
40000000
60380000
207C0000
20FE0800
20FE1C00
30FE3C00
107C7600
103FE200
180FC300
08000100
0C000100
06000100
02000300
03000300
01800600
00C01E00
00707C00
003FF800
000FC000
ENDCHAR
STARTCHAR C119
ENCODING 119
SWIDTH 0 0
DWIDTH 0 0
BBX 14 10 -11 29
BITMAP
0300
0780
8784
8784
830C
C008
6018
3870
1FE0
0780
ENDCHAR
STARTCHAR C120
ENCODING 120
SWIDTH 528 0
DWIDTH 22 0
BBX 20 26 3 0
BITMAP
0E01F0
1F01F0
3F0300
2E0300
200700
101F00
0C7300
03C300
030300
0E0300
180300
300300
E00300
E00300
780300
1E0300
078300
01C300
006300
003300
001B00
000F00
000700
000700
000300
000100
ENDCHAR
STARTCHAR C121
ENCODING 121
SWIDTH 552 0
DWIDTH 23 0
BBX 24 27 0 -1
BITMAP
FFFFFF
FFFFFF
780030
0E0030
030030
008030
006030
003030
007030
00F030
01C030
038030
070030
0E0030
1C0030
1F8030
03E030
007030
001C30
000E30
000330
0001B0
0070F0
00F870
00F830
00F830
007010
ENDCHAR
STARTCHAR C122
ENCODING 122
SWIDTH 576 0
DWIDTH 24 0
BBX 23 28 2 -1
BITMAP
000040
0F807E
3FE07E
707060
F01060
F81860
F81860
301860
003860
003060
007060
00E060
03C060
1F0060
3C0060
1F8060
01E060
003060
000C60
000260
000160
0000E0
000060
000060
000060
000060
000060
000020
ENDCHAR
STARTCHAR C123
ENCODING 123
SWIDTH 600 0
DWIDTH 25 0
BBX 26 1 0 12
BITMAP
FFFFFFC0
ENDCHAR
STARTCHAR C124
ENCODING 124
SWIDTH 1104 0
DWIDTH 46 0
BBX 47 1 0 12
BITMAP
FFFFFFFFFFFE
ENDCHAR
STARTCHAR C125
ENCODING 125
SWIDTH 504 0
DWIDTH 21 0
BBX 22 29 0 -3
BITMAP
FFFFFC
FFFFFC
010000
00F800
03FE00
07C300
0FC080
0F80C0
0F00C0
0000C0
0001C0
000380
0C0F00
07FE00
01F800
006000
001800
000400
000300
07C080
0FEEC0
183FE0
1E11C0
1F10C0
1F00C0
1F00C0
0E00C0
0000C0
0000C0
ENDCHAR
STARTCHAR C126
ENCODING 126
SWIDTH 648 0
DWIDTH 27 0
BBX 23 9 2 8
BITMAP
0F0000
1FC000
3FE000
70F002
403806
801E1C
000FF8
0007F0
0001E0
ENDCHAR
STARTCHAR C127
ENCODING 127
SWIDTH 984 0
DWIDTH 41 0
BBX 42 31 0 -5
BITMAP
FFFFFE7C0FC0
FFFFFFFF0FC0
000803C18C00
000807004C00
000806002C00
00080E003C00
00080F801C00
00080FC00C00
00080C200C00
00081C100C00
000834180C00
0008E6180C00
100BC2180C00
100F03380C00
100401300C00
180001300C00
080001000C00
0C0001000C00
040003000C00
060002000C00
030006000C00
01800C000C00
00E038000C00
007FF0000C00
001FC0000C00
000000000C00
000380000000
0007C0000000
0007C0000000
0007C0000000
000380000000
ENDCHAR
STARTCHAR C128
ENCODING 128
SWIDTH 696 0
DWIDTH 29 0
BBX 30 27 0 -1
BITMAP
FFFFFFFC
FFFFFFFC
00006000
0000F800
0007FE00
001F6780
007861C0
01E060E0
078061E0
0E0063E0
1C007BE0
0E03FFC0
070FE700
03BC6380
01F06180
01E061C0
038060C0
03E060C0
007067C0
003C6FC0
000E6F80
00076700
0003E000
0001E000
0000E000
00006000
00006000
ENDCHAR
STARTCHAR C129
ENCODING 129
SWIDTH 552 0
DWIDTH 23 0
BBX 24 38 0 -1
BITMAP
800000
C00000
700000
3E0000
0FFE00
01FFC0
0001E0
000030
000010
000008
000008
FFFFFF
FFFFFF
000C00
000F00
007FC0
01FCE0
078C70
0E0C30
3C0CF0
3E0DF0
078DF0
01CDE0
00ECC0
007C00
003C00
001C00
001C00
007CE0
00F1F0
00C1F0
0181F0
0180E0
018060
0180E0
00C1C0
007F80
003F00
ENDCHAR
STARTCHAR C130
ENCODING 130
SWIDTH 744 0
DWIDTH 31 0
BBX 32 25 0 1
BITMAP
FFFFFFFF
FFFFFFFF
00000000
00000000
001FC000
00FFE000
21F03000
33801FC0
33801FE0
37C01830
33C7B0F8
318FF1F8
180FE1F8
180FC1F8
180FE1F8
1807B0F0
0C003000
0C001800
06001800
06001800
03003000
01807000
00E1E000
007FC000
001F0000
ENDCHAR
STARTCHAR C131
ENCODING 131
SWIDTH 696 0
DWIDTH 29 0
BBX 30 27 0 -1
BITMAP
FFFFFFFC
FFFFFFFC
00006000
0000F800
0007FF00
001F6780
007861C0
01E060C0
078060E0
0E006060
1C006060
0E03E1E0
070FE3E0
03BC63E0
01F061C0
01E06000
03806000
03E06000
00786000
001E6000
00076000
0003E000
0001E000
0000E000
0000E000
00006000
00006000
ENDCHAR
STARTCHAR C132
ENCODING 132
SWIDTH 672 0
DWIDTH 28 0
BBX 29 27 0 -1
BITMAP
FFFFFFF8
FFFFFFF8
00060180
000F8180
007FE180
01F67180
07863980
1E061980
38061980
3E067980
0786F980
01E6F180
00766180
003E0180
001E0180
000E0180
000F8180
001FE180
001FF980
001F9D80
001F8780
000F0380
00000180
00000180
00000180
00000180
00000080
ENDCHAR
STARTCHAR C133
ENCODING 133
SWIDTH 840 0
DWIDTH 35 0
BBX 36 27 0 -1
BITMAP
FFFFFFFFF0
FFFFFFFFF0
0000000000
0000F00000
0003F80000
0007840000
000E060000
001C067C00
001807FE00
0038078300
083E061F80
183F063F80
103F063F80
101F063F80
101F063F80
100E061F00
1000060000
1000060000
1800060000
0800060000
0C00060000
0700060000
03FFF60000
00FFFE0000
00000E0000
0000060000
0000020000
ENDCHAR
STARTCHAR C134
ENCODING 134
SWIDTH 648 0
DWIDTH 27 0
BBX 28 27 0 -1
BITMAP
FFFFFFF0
FFFFFFF0
00006000
0000F800
0007FE00
001F6700
00786380
01E06180
03806180
03E06780
00786F80
001E6F80
00076700
0003E000
0001E000
0000E000
00006000
0FC66000
1FEFE000
3039E000
2E10E000
3F006000
3F006000
1F006000
0E006000
00006000
00002000
ENDCHAR
STARTCHAR C135
ENCODING 135
SWIDTH 816 0
DWIDTH 34 0
BBX 35 27 0 -1
BITMAP
FFFFFFFFE0
FFFFFFFFE0
08020C0000
04020C0000
06020C0000
1FC30C0000
3FF18C0000
3F38FFE000
3F0C7FF800
3F040C1C00
1E060C0600
00060C0200
00060C3E00
00060C7E00
007E0C7E00
00FE0C7E00
00FF8C7E00
00FDCC3C00
00FC6C0000
00783C0000
00001C0000
00001C0000
00000C0000
00000C0000
00000C0000
00000C0000
0000040000
ENDCHAR
STARTCHAR C136
ENCODING 136
SWIDTH 744 0
DWIDTH 31 0
BBX 32 30 0 -4
BITMAP
FFFFFFFF
FFFFFFFF
08043000
0C043000
1F043000
3FE63000
3FF33F00
3F19FFC0
3F08F0E0
1E0C3030
000C3010
000C31F0
000C33F0
00FC33F0
01FC33F0
01FF31E0
01FBB000
01F8F000
00F07000
00007000
01FC3000
03FF3000
03F3B000
03F0F000
03F07000
01E03000
00003000
00003000
00003000
00001000
ENDCHAR
STARTCHAR C137
ENCODING 137
SWIDTH 840 0
DWIDTH 35 0
BBX 36 33 0 -7
BITMAP
FFFFFFFFF0
FFFFFFFFF0
0806180300
0404180300
1F04180300
3FE6180300
3FF31F8300
3F19FFE300
3F08F87300
1E0C181B00
000C180B00
000C18FB00
000C19FB00
007C19FB00
00FE19FB00
00FF98F300
00FDD80300
00FC780300
0078380300
0000380300
0000180300
0001FC0300
0003FF8300
0003FBE300
0003F07300
0003F01B00
0001E00F00
0000000700
0000000300
0000000300
0000000300
0000000300
0000000100
ENDCHAR
STARTCHAR C138
ENCODING 138
SWIDTH 672 0
DWIDTH 28 0
BBX 29 27 0 -1
BITMAP
FFFFFFF8
FFFFFFF8
00060180
000F0180
003FC180
00F6E180
03C67180
0F063180
1C067180
1F06F180
03C6F180
00E6F180
00766180
003E0180
001EF180
000FFD80
000F8780
04070180
060E0180
023C0180
01F80180
00E00180
00000180
00000180
00000180
00000180
00000080
ENDCHAR
STARTCHAR C139
ENCODING 139
SWIDTH 648 0
DWIDTH 27 0
BBX 25 27 3 -1
BITMAP
07C1FF80
1FE1FF80
3C118000
70098000
E0058000
F8038000
FC038000
42018000
01018000
01818000
01818000
03818000
07018000
0201F800
0007F800
001F8800
00798800
01E18800
03818800
03E18800
00798800
001D8800
000F8800
00078800
00038800
00038800
00018000
ENDCHAR
STARTCHAR C140
ENCODING 140
SWIDTH 552 0
DWIDTH 23 0
BBX 22 27 2 -1
BITMAP
07E0FC
1FF8FC
3C0CC0
7002C0
E001C0
FC01C0
FE00C0
4100C0
0180C0
0180C0
0180C0
0380C0
0300C0
0100C0
0000C0
0000C0
07F0C0
1FFCC0
3F0EC0
3F03C0
3F01C0
3F00C0
1E00C0
0000C0
0000C0
0000C0
000040
ENDCHAR
STARTCHAR C141
ENCODING 141
SWIDTH 552 0
DWIDTH 23 0
BBX 22 27 2 -1
BITMAP
07E0FC
1FF8FC
3C0CC0
7002C0
E001C0
FC01C0
FE00C0
4100C0
0180C0
0180C0
0180C0
0380C0
0300C0
0100C0
0003C0
000FC0
003CC0
0070C0
01E0C0
01F0C0
003CC0
000EC0
0007C0
0003C0
0001C0
0000C0
0000C0
ENDCHAR
STARTCHAR C142
ENCODING 142
SWIDTH 696 0
DWIDTH 29 0
BBX 29 27 1 -1
BITMAP
07F07FF8
1FFC7FF8
3C066180
70016180
E000E180
FC00E180
FE006180
41006180
00806180
00C06180
00C06180
01C06180
03806180
01006180
00006180
00003180
0001F180
0003F180
0003F980
0003FD80
0003F780
0003F380
0001E180
00000180
00000180
00000180
00000080
ENDCHAR
STARTCHAR C143
ENCODING 143
SWIDTH 576 0
DWIDTH 24 0
BBX 22 27 3 -1
BITMAP
07E0FC
1FF8FC
3C0CC0
7002C0
E001C0
FC01C0
FE00C0
4100C0
0180C0
0180C0
0180C0
0380C0
0300C0
0100C0
0000C0
1E00C0
3F9EC0
61FFC0
C061C0
B820C0
FC20C0
FC00C0
7C00C0
3800C0
0000C0
0000C0
000040
ENDCHAR
STARTCHAR C144
ENCODING 144
SWIDTH 528 0
DWIDTH 22 0
BBX 23 29 0 -3
BITMAP
FFFFFE
FFFFFE
0C0060
1C0060
180060
180060
081060
07F860
03F860
00E060
01C060
038060
0F0060
07C060
007060
001C60
000660
000160
00F8E0
03FE60
07F760
07F1E0
07F0E0
07F060
03E060
000060
000060
000060
000020
ENDCHAR
STARTCHAR C145
ENCODING 145
SWIDTH 600 0
DWIDTH 25 0
BBX 26 27 0 -1
BITMAP
FFFFFFC0
FFFFFFC0
00030180
00018180
07E0C300
1FF87E00
3F1C3C00
3F060000
3F030000
1E018000
00018000
0003C000
000FF000
003DB800
00F19C00
03C18C00
0F018E00
0F818600
01E19E00
0071BE00
0039BE00
001DBE00
000F9C00
00078000
00038000
00038000
00018000
ENDCHAR
STARTCHAR C146
ENCODING 146
SWIDTH 1224 0
DWIDTH 51 0
BBX 49 29 3 -1
BITMAP
003C0000000000
007E0000000000
20E3FFFFFFFF80
60C3FFFFFFFF80
38C7100C180000
9D9E1808180000
C7FC0808180000
C3F03F8C180000
C1807FC6180000
C1817E63FF8000
C181FE31FFE000
C187FE10187000
619FFC18181800
61FC6018180800
60F0601818F800
3000601819F800
300060F819F800
180061F819F800
1800C1FF19F800
0C01C1FF98F000
070781F8D80000
03FF00F0780000
00FC0000380000
00000000380000
00000000180000
00000000180000
00000000180000
00000000180000
00000000080000
ENDCHAR
STARTCHAR C147
ENCODING 147
SWIDTH 792 0
DWIDTH 33 0
BBX 34 29 0 -1
BITMAP
000F000000
001F800000
FC38C00FC0
FC30C00FC0
0631C00C00
13E7800C00
19FF000C00
187C000C00
1860400C00
1860600C00
0C60F00C00
0C63D80C00
0C7F9C0C00
063E1E0C00
06001B0C00
0300330C00
0180730C00
00E1E30C00
007FC60C00
001F0C0C00
0000180C00
00003C0C00
00000F0C00
000003CC00
000000EC00
0000003C00
0000001C00
0000000C00
0000000400
ENDCHAR
STARTCHAR C148
ENCODING 148
SWIDTH 576 0
DWIDTH 24 0
BBX 25 27 0 -1
BITMAP
FFFFFF80
FFFFFF80
08180C00
040C1800
0F861800
1FC3F000
3E21E800
3E301C00
3E107C00
1C18F800
0019D800
001F9800
001F3800
003C3000
00383000
00703000
00E03000
01C03000
27803000
1F003000
0C003000
00003000
00003000
00001000
00001800
00001800
00000800
ENDCHAR
STARTCHAR C149
ENCODING 149
SWIDTH 888 0
DWIDTH 37 0
BBX 36 29 2 -1
BITMAP
003C000000
007E000000
20E3FFFFF0
30C3FFFFF0
18C7600300
CF9EE00300
C7FCC00300
C1F0C00300
C180C00300
6181C00300
6181C1C300
6187FFC300
619FDF8300
30FC670300
30F06E0300
30007C0300
1800780300
0C00700300
0C00FC0300
0601C70300
038781C300
01FF006300
007C001300
0000000B00
0000000700
0000000700
0000000300
0000000300
0000000100
ENDCHAR
STARTCHAR C150
ENCODING 150
SWIDTH 648 0
DWIDTH 27 0
BBX 26 29 2 -1
BITMAP
003C0000
007E0000
20E3FFC0
30C3FFC0
18C70C00
CF9E0C00
C7FC0C00
C1F00C00
C1800C00
61830C00
61878C00
619ECC00
31FCCC00
30F0CC00
1800CC00
18018C00
0C038C00
070F0C00
03FE0C00
00FC0C00
007E0C00
007F8C00
007FEC00
007E3C00
007E1C00
003C0C00
00000C00
00000C00
00000400
ENDCHAR
STARTCHAR C151
ENCODING 151
SWIDTH 744 0
DWIDTH 31 0
BBX 32 26 0 0
BITMAP
FFFFFFFF
FFFFFFFF
18030000
18030000
1C038000
1F038000
1BC3C000
18FB7000
183F3C00
180F0F00
180F03E0
181B00F0
181B0030
18330030
18730030
18E30060
1BC30060
0F8300E0
060300C0
00030180
00030380
00030700
00030E00
0001BC00
0001F800
0000E000
ENDCHAR
STARTCHAR C152
ENCODING 152
SWIDTH 744 0
DWIDTH 31 0
BBX 32 27 0 -1
BITMAP
FFFFFFFF
FFFFFFFF
18030000
18030000
1C030000
1F038000
1BC37780
18FB3FC0
183F0E20
180F0C30
180F0C30
181B1C30
181B3870
1831F060
1870E0E0
18E001C0
1BC00F80
0F80FE00
06007800
00001800
00000400
00000200
00000100
00000080
00000040
00000020
00000010
ENDCHAR
STARTCHAR C153
ENCODING 153
SWIDTH 720 0
DWIDTH 30 0
BBX 31 30 0 -4
BITMAP
FFFFFFFE
FFFFFFFE
18060000
18060000
1C060000
1F078000
1BE6FF00
18FE3F80
181E1C40
180E1860
180E3860
181E7060
183BE0E0
1871C1C0
18E00F80
1BC0FF00
0F80F800
06003000
00001800
00000400
00000200
00000100
00000380
00003FC0
0000FDA0
0000F980
00001F80
00000780
00000380
00000180
ENDCHAR
STARTCHAR C154
ENCODING 154
SWIDTH 648 0
DWIDTH 27 0
BBX 28 27 0 -1
BITMAP
FFFFFFF0
FFFFFFF0
0C000000
0E000000
0F800000
0DF80000
0C7E0000
0C060000
0C060000
0C0C0000
0C1C0000
0C7C1C00
0CFE7E00
07E3E300
03C38100
09830700
19F30F00
11F30F00
10F30700
10038100
1003E300
18037E00
0C031C00
07FF0000
03FF0000
00030000
00010000
ENDCHAR
STARTCHAR C155
ENCODING 155
SWIDTH 936 0
DWIDTH 39 0
BBX 40 26 0 0
BITMAP
FFFFFFFFFF
FFFFFFFFFF
00E0000000
01B0000000
011E000000
230FFF8000
2201FF8000
2200078000
231C06C000
31FC0C7000
10E7183FF0
1803100FE0
0803100020
0C03101020
0707987860
03FC8FE840
00F8878C40
0000C00440
0000400440
0000600440
0000300C40
00001C1840
00000FF040
000003E040
0000000040
0000000020
ENDCHAR
STARTCHAR C156
ENCODING 156
SWIDTH 936 0
DWIDTH 39 0
BBX 40 31 0 -5
BITMAP
FFFFFFFFFF
FFFFFFFFFF
00E0000000
01B0000000
011E000000
230FFF8000
2201FF8000
2200078000
231C06C000
31FC0C7000
10E7183FF8
1803100FF0
0803100010
0C03101010
0707987830
03FC8FE820
00F8878C20
0000C00420
0000400420
0000600420
0000300C20
00001C1860
00000FF1E0
000003E7E0
0000000E60
0000001830
0000003030
0000003E30
0000000FB0
00000001F0
0000000070
ENDCHAR
STARTCHAR C157
ENCODING 157
SWIDTH 1200 0
DWIDTH 50 0
BBX 51 27 0 -1
BITMAP
FFFFFFFFFF07E0
FFFFFFFFFF87E0
001C0000018600
00340000018600
00260000038600
006300000F8600
1041C0003D8600
10C0FFC0F18600
10803F83C18600
10800087018600
1080009E018600
1880C1B8018600
08C1E170018600
087F21F0018600
083E31FC018600
0C00110F018600
04001103818600
06001101E1C600
0300110071E600
0180310039B600
00E061001DB600
007FC1000F9E00
001F8100078E00
00000100078E00
00000100038600
00000100038200
00000000018000
ENDCHAR
STARTCHAR C158
ENCODING 158
SWIDTH 744 0
DWIDTH 31 0
BBX 32 23 0 3
BITMAP
FFFFFFFF
FFFFFFFF
003C0000
002C0000
00660000
00C601E0
208303F0
21818610
21018C08
2100D808
2100F008
2180E0D0
30C3E1F0
107F21F0
103C30D8
18001008
08001808
0C001E10
060017F0
030031E0
01E06000
007FC000
001F8000
ENDCHAR
STARTCHAR C159
ENCODING 159
SWIDTH 720 0
DWIDTH 30 0
BBX 31 31 0 -5
BITMAP
FFFFFFFE
FFFFFFFE
00380000
00680000
00CC0000
01840000
21060000
2303C020
2201FFE0
22003FE0
22000040
33018040
1187C040
10FE4040
107860C0
18002080
08002080
0C002080
06002080
03006380
01C0CF80
00FFBC80
003F7080
0001C080
00038080
0001E080
00007880
00001E80
00000740
000001C0
000000C0
ENDCHAR
STARTCHAR C161
ENCODING 161
SWIDTH 600 0
DWIDTH 25 0
BBX 22 33 2 -6
BITMAP
0003C0
3E0FE0
7F1C30
F0B010
F8E0F0
F8C1F0
F8C1F0
71C0F0
03E010
073010
1E1C20
3C0FE0
7003C0
E01800
C03C00
C07200
C0E300
43C300
3F8300
1E0700
001E00
03FC00
FFF000
7E0000
07C000
00F000
001C00
000700
000180
000060
000030
000008
000004
ENDCHAR
STARTCHAR C162
ENCODING 162
SWIDTH 696 0
DWIDTH 29 0
BBX 24 29 2 -1
BITMAP
00007C
0001FE
038382
0FC601
1C6C01
30380D
38301E
3C601E
3CD00F
199801
010C01
030601
860382
8401FE
84007E
840006
C6070C
43FF8C
61F88C
2000CC
30004C
18004C
0E00CC
07838C
01FF0C
007C0C
00000C
00000C
000004
ENDCHAR
STARTCHAR C163
ENCODING 163
SWIDTH 624 0
DWIDTH 26 0
BBX 20 27 3 -1
BITMAP
01E1C0
03F3E0
071E30
0E1C10
8C1870
8F18F0
8F18F0
871870
801C10
C01E30
701BE0
3FF9C0
0FF800
001800
007980
03F980
0F9980
1E1980
781980
7E1980
079980
01DD80
00FF80
007B80
003B80
003980
001800
ENDCHAR
STARTCHAR C164
ENCODING 164
SWIDTH 576 0
DWIDTH 24 0
BBX 25 41 0 -4
BITMAP
80000000
E0000000
78000000
1F000000
07FF0000
00FFE000
0000F000
00001800
00000800
00000400
00000400
FFFFFF80
FFFFFF80
03000000
03000000
03000000
03000000
03000000
03000000
03000000
03007000
0300F800
0300F800
0300F800
03007800
03003000
03003000
03006000
0300E000
0301C000
0303C000
03076000
131E2000
11FC2000
18F02000
0C006000
06004000
0300C000
01C38000
00FF0000
003C0000
ENDCHAR
STARTCHAR C165
ENCODING 165
SWIDTH 504 0
DWIDTH 21 0
BBX 24 42 -2 -5
BITMAP
800000
E00000
780000
1F0000
07FE00
00FFC0
0001E0
000030
000010
000008
000008
3FFFFF
3FFFFF
030000
030000
030000
030000
030000
030000
0300E0
0301F0
0301F0
0301F0
0300F0
030060
030060
030060
0300C0
0301C0
030380
030700
031E00
01FC60
00F1E0
0007E0
001E60
001E60
0007E0
0001E0
0000E0
000060
000060
ENDCHAR
STARTCHAR C166
ENCODING 166
SWIDTH 888 0
DWIDTH 37 0
BBX 38 25 0 1
BITMAP
FFFFFFFFFC
FFFFFFFFFC
0040008000
0040008000
0040008000
0040008000
0046008000
004F008000
1079808300
1070808300
1000808780
1800809C80
080180B8C0
0C0180E040
0707804040
03FE800040
00F8800040
0000C00040
00004000C0
0000600080
0000300180
0000180300
00000E0E00
000007FC00
000001F000
ENDCHAR
STARTCHAR C167
ENCODING 167
SWIDTH 768 0
DWIDTH 32 0
BBX 31 37 2 0
BITMAP
02000000
03800000
01E00000
007C0000
001FFC00
0003FF80
000003C0
00000060
00000020
00000010
00000010
0787FFFE
1FC7FFFE
3C260000
70160000
601E0000
F00E0000
F8060000
F8060000
F8060000
700601C0
000603E0
000603E0
000603E0
000601E0
00060060
000600C0
000600C0
000600C0
00060180
00060180
00060300
00060700
00060E00
00063C00
0003F800
0001E000
ENDCHAR
STARTCHAR C168
ENCODING 168
SWIDTH 600 0
DWIDTH 25 0
BBX 19 39 3 1
BITMAP
006000
00E000
00C000
00C000
00C000
00C000
00C000
00C000
00C000
00C000
00C000
004000
006000
1E6000
3FA000
70F000
E03000
E03800
F03400
F03600
603200
003100
007080
0060C0
00E040
00C060
01C060
018060
038060
070060
0E00E0
1C00C0
3801C0
300180
300380
100700
0C1E00
07FC00
01F000
ENDCHAR
STARTCHAR C169
ENCODING 169
SWIDTH 624 0
DWIDTH 26 0
BBX 22 25 2 1
BITMAP
07C0C0
0FE0E0
1C31B0
1C1B98
FE0F18
FE0E18
FE0618
DC0018
C00018
C00030
C007F0
600FE0
600FC0
600FE0
300FF0
300798
18000C
18000C
0C000C
0C000C
060018
030038
01C0F0
00FFE0
003F80
ENDCHAR
STARTCHAR C170
ENCODING 170
SWIDTH 528 0
DWIDTH 22 0
BBX 20 28 3 -1
BITMAP
000300
0783F0
1FE3F0
3C3300
700B00
600700
F00300
F80300
F80300
780300
300300
000300
000300
000300
07C300
1FF300
3C1B00
700700
700300
F80300
F80300
780300
300300
000300
000300
000300
000300
000100
ENDCHAR
STARTCHAR C171
ENCODING 171
SWIDTH 648 0
DWIDTH 27 0
BBX 25 28 3 -1
BITMAP
00060000
0F87FF80
3FC7FF80
78261800
E0161800
C00E1800
F0061800
F8061800
F8061800
F8061800
70061800
00061800
00061800
00061800
00061800
00061800
003E1800
007F9800
007FD800
007E7800
007E3800
003C1800
00001800
00001800
00001800
00001800
00001800
00000800
ENDCHAR
STARTCHAR C172
ENCODING 172
SWIDTH 576 0
DWIDTH 24 0
BBX 25 25 0 1
BITMAP
FFFFFF80
FFFFFF80
00000000
00000000
000FC000
007FE000
10F83000
31E01800
33C01800
1BE01800
1BE3B000
19C7F000
1807E000
1807C000
0C07E000
0C03B000
0C001800
06001800
06001800
03001800
03003000
01807000
00E1E000
007FC000
001F0000
ENDCHAR
STARTCHAR C173
ENCODING 173
SWIDTH 552 0
DWIDTH 23 0
BBX 24 29 0 -3
BITMAP
FFFFFF
FFFFFF
000000
003FC0
00FFE0
01E030
338030
33C030
33C060
1BC7E0
198FC0
180FC0
0C0FE0
0C0760
0C0030
060030
060030
030060
01C1E0
00FFE0
003FE0
0007E0
001F60
007860
007E60
000760
0003E0
0000E0
000060
ENDCHAR
STARTCHAR C174
ENCODING 174
SWIDTH 624 0
DWIDTH 26 0
BBX 24 28 3 -1
BITMAP
000020
1C103F
7E383F
E37830
E16430
F1E630
F0C630
E0C630
000630
000E30
001C30
007830
01E030
0F8030
1E0030
1FC030
00F030
001830
000630
000130
0000B0
000070
000030
000030
000030
000030
000030
000010
ENDCHAR
STARTCHAR C175
ENCODING 175
SWIDTH 576 0
DWIDTH 24 0
BBX 25 27 0 -1
BITMAP
FFFFFF80
FFFFFF80
0003C000
200FF000
301FB800
101F8C00
181F8400
0C1F8400
040F0400
06000400
03000400
01800C00
00E00800
00781800
001FF000
0007F000
00FC3000
03FF3000
07E3B000
07E0F000
07E07000
07E03000
03C03000
00003000
00003000
00003000
00001000
ENDCHAR
STARTCHAR C176
ENCODING 176
SWIDTH 600 0
DWIDTH 25 0
BBX 26 27 0 -1
BITMAP
FFFFFFC0
FFFFFFC0
00000000
2007E000
300FF800
100FDC00
180FC600
0C0FC200
04078200
06000200
03000200
01800600
00C00400
00700C00
003C1800
000FF800
0003F800
0007D800
001E1800
00381800
003E1800
00079800
0001D800
0000F800
00007800
00003800
00001800
ENDCHAR
STARTCHAR C177
ENCODING 177
SWIDTH 744 0
DWIDTH 31 0
BBX 32 27 0 -1
BITMAP
FFFFFFFF
FFFFFFFF
0001E030
2007F830
300FDC30
180FC630
080FC230
0C0FC230
06078230
03000230
01800630
00C00430
00700C30
003C1830
000FF030
0003E030
0003F030
0007FC30
0007EF30
0007E3B0
0007E0F0
0003C070
00000030
00000030
00000030
00000030
00000010
ENDCHAR
STARTCHAR C178
ENCODING 178
SWIDTH 648 0
DWIDTH 27 0
BBX 28 27 0 -1
BITMAP
FFFFFFF0
FFFFFFF0
00000000
0000F800
0003FC00
00078200
000E0300
001C0300
00180300
08380300
083F0300
183F8300
103F8300
101F8300
101F8300
100F0300
10000300
18000300
08000300
0C000300
06000300
03C00300
01FFFB00
003FFF00
00000700
00000300
00000100
ENDCHAR
STARTCHAR C179
ENCODING 179
SWIDTH 792 0
DWIDTH 33 0
BBX 34 27 0 -1
BITMAP
FFFFFFFFC0
FFFFFFFFC0
0000000000
0001E00000
0007F00000
000F083800
001C0C7C00
00380C7E00
00300C7F00
08700C7F00
087E0C3B00
187F0C0300
107F0C0300
103F0E0600
103F0F0C00
101E0DF800
10000CF000
10000C0000
18000C0000
08000C0000
0C000C0000
07000C0000
03FFEC0000
00FFFC0000
00001C0000
00000C0000
0000040000
ENDCHAR
STARTCHAR C180
ENCODING 180
SWIDTH 864 0
DWIDTH 36 0
BBX 37 27 0 -1
BITMAP
FFFF0F81F8
FFFF3FE1F8
1800783180
1800E00980
1800C00580
1801C00380
1801F00380
1803F80180
180F040180
181E020180
1876030180
18C6030180
1986030180
1B06070180
1E0C060180
1C0C000180
180C000180
180C000180
000C000180
000C000180
000C000180
000C000180
000C000180
000C000180
000C000180
0006000180
0004000180
ENDCHAR
STARTCHAR C181
ENCODING 181
SWIDTH 840 0
DWIDTH 35 0
BBX 36 27 0 -1
BITMAP
FFFFFFFFF0
FFFFFFFFF0
1800E00300
1800C00300
1801C00300
1801800300
1801800300
1803800300
180F81C300
181E7FC300
18763F8300
18C6070300
19860E0300
1B061C0300
1E0C380300
1C0C700300
180C3C0300
180C070300
000C01C300
000C006300
000C001300
000C000B00
000C000700
000C000700
000C000300
0006000300
0004000100
ENDCHAR
STARTCHAR C182
ENCODING 182
SWIDTH 576 0
DWIDTH 24 0
BBX 25 27 0 -1
BITMAP
FFFFFF80
FFFFFF80
30000000
30000000
30100000
30780000
31F00000
33300000
36303800
3C307800
3830F000
3031B000
00333000
00363000
00346000
003C6000
00386000
00306000
00106000
00006000
00006000
00006000
00006000
00006000
00003000
00003000
00001000
ENDCHAR
STARTCHAR C183
ENCODING 183
SWIDTH 624 0
DWIDTH 26 0
BBX 27 27 0 -1
BITMAP
FFFFFFE0
FFFFFFE0
18000000
18000000
18000000
18000000
18000000
180F0000
183F8000
18F0C000
19C0C000
1F00FE00
1E03FE00
180FC200
003CC200
00F0C200
01C0C200
0380C200
03E0C200
0070C200
003CC200
000EC200
0007C200
0003C200
0001C200
0001C200
0000C000
ENDCHAR
STARTCHAR C184
ENCODING 184
SWIDTH 528 0
DWIDTH 22 0
BBX 23 27 0 -1
BITMAP
FFFFFE
FFFFFE
180000
180000
180000
180000
180000
180780
181FC0
187860
19E060
1B8060
1E01E0
1C07E0
001E60
007860
01E060
03C060
03F060
003860
001E60
000760
0003E0
0001E0
0000E0
000060
000060
ENDCHAR
STARTCHAR C185
ENCODING 185
SWIDTH 624 0
DWIDTH 26 0
BBX 27 27 0 -1
BITMAP
FFFFFFE0
FFFFFFE0
18000000
18000000
18000000
181E0000
18760000
18C60000
1B8C0000
1E0C0000
1C0C0000
180C0000
000C0000
107C1000
10FC3800
10FC7C00
18FDE400
08FFC600
087F0200
0C000200
04000600
06000600
03000C00
01801C00
00F07800
003FF000
000FC000
ENDCHAR
STARTCHAR C186
ENCODING 186
SWIDTH 624 0
DWIDTH 26 0
BBX 27 27 0 -1
BITMAP
FFFFFFE0
FFFFFFE0
18000000
18000000
18000000
181E0000
18760000
18C60000
1B8C0000
1E0C0000
1C0C0000
180C0000
000C0000
007C1800
00FC3C00
08FC7600
08FDE200
08FFC200
087F0200
0C000200
04000200
06000200
0380F200
01FFFE00
007F0E00
00000200
00000200
ENDCHAR
STARTCHAR C187
ENCODING 187
SWIDTH 552 0
DWIDTH 23 0
BBX 24 27 0 -1
BITMAP
FFFFFF
FFFFFF
300030
300030
300030
300230
300630
301E30
307630
31C630
330630
360C30
3C0C30
380C30
300C30
000C30
000C30
000C30
007E30
00FFB0
00FDF0
00FC70
00FC30
007830
000030
000030
000010
ENDCHAR
STARTCHAR C188
ENCODING 188
SWIDTH 504 0
DWIDTH 21 0
BBX 20 29 2 -3
BITMAP
0701F0
0F83F0
0F8300
0B0F00
0C3F00
07F300
03C300
070300
1E0300
380300
3E0300
078300
01E300
007300
003B00
001F00
000F00
000700
1F8300
7FE300
FC7B00
FC0F00
FC0700
FC0300
780300
000300
000300
000300
000100
ENDCHAR
STARTCHAR C189
ENCODING 189
SWIDTH 912 0
DWIDTH 38 0
BBX 37 27 2 -1
BITMAP
0F007FFFF8
1F80FFFFF8
1F80C00180
1700C00180
1003C00380
180FC00F80
0E3CC03D80
03F0C0F180
03C0C3C180
0700C70180
0E00DE0180
3C00F80180
7000F00180
F000F00180
FC00FC0180
0F00CF0180
0380C38180
01E0C1E180
0070C07180
0038C03980
001CC01D80
000EC00F80
0007C00780
0003C00380
0003C00380
0001C00180
0001C00180
ENDCHAR
STARTCHAR C190
ENCODING 190
SWIDTH 768 0
DWIDTH 32 0
BBX 33 37 0 0
BITMAP
0080000000
00E0000000
0078000000
001F000000
0007FF0000
0000FFE000
000000F000
0000001800
0000000800
0000000400
0000000400
FFFFFFFF80
FFFFFFFF80
0003000000
0003000000
0003000000
0003000000
07C3000000
1FF3000000
3F3B000000
3F0F007000
3F0700F800
3F0300F800
1E0300F800
0003007800
0003001800
0003003000
0003003000
0003006000
0003006000
000300C000
000301C000
0003038000
0003070000
00019E0000
0000FC0000
0000700000
ENDCHAR
STARTCHAR C191
ENCODING 191
SWIDTH 624 0
DWIDTH 26 0
BBX 27 25 0 1
BITMAP
FFFFFFE0
FFFFFFE0
000C0000
000C0000
0F0C0000
3FCC0000
7CEC0000
7C3C0000
7C1C1800
380C3800
000C6C00
000DC400
100F8400
100E0600
10040200
18000200
08000200
0C000200
04000600
06000400
03000C00
01801800
00E07000
007FE000
001F8000
ENDCHAR
STARTCHAR C192
ENCODING 192
SWIDTH 624 0
DWIDTH 26 0
BBX 27 27 0 -1
BITMAP
FFFFFFE0
FFFFFFE0
00000600
00000600
00000600
00000600
01E00600
03F80600
23FC0C00
33E71C00
13E3F800
11C0F000
1801F000
0803F800
0C03FC00
0403F600
0603F200
0203F300
0301E100
01000100
01800100
00C00100
00600300
00380200
001E0E00
0007FC00
0001F000
ENDCHAR
STARTCHAR C193
ENCODING 193
SWIDTH 600 0
DWIDTH 25 0
BBX 26 29 0 -3
BITMAP
FFFFFFC0
FFFFFFC0
00003000
00003000
00003000
0F003000
1FC03000
1FE03000
1F386000
1F1FE000
0E07C000
0007F000
003FF800
087C0C00
0CE00C00
0CF00C00
0DF1D800
0CF3F800
0663F000
0603F000
0603F800
0301D800
03000C00
01800C00
01800C00
00C01800
00707800
003FF000
000FC000
ENDCHAR
STARTCHAR C194
ENCODING 194
SWIDTH 600 0
DWIDTH 25 0
BBX 26 30 0 -4
BITMAP
FFFFFFC0
FFFFFFC0
00000C00
00000C00
00000C00
03E00C00
07F00C00
27FC0C00
27EE1800
37E3F800
13C1F000
1803F800
0807EC00
0C07E400
0607E600
0207E200
0303C200
01800200
00C00200
00700600
003C1C00
000FF800
0003F800
0001F800
0007D800
0007D800
0000F800
00007800
00003800
00001800
ENDCHAR
STARTCHAR C195
ENCODING 195
SWIDTH 624 0
DWIDTH 26 0
BBX 27 29 0 -3
BITMAP
FFFFFFE0
FFFFFFE0
00000600
00000600
00000600
01E00600
03F80600
03FC0600
03E70C00
03E3FC00
01C1F800
0007FC00
000F0600
001C0600
00380600
083E0600
183F0600
103F0600
101F0600
100E0600
10000600
18000600
08000600
0C000600
07000600
03FFFE00
00FFFE00
00000600
00000200
ENDCHAR
STARTCHAR C196
ENCODING 196
SWIDTH 600 0
DWIDTH 25 0
BBX 26 29 0 -3
BITMAP
FFFFFFC0
FFFFFFC0
00003000
00003000
00003000
0F003000
1FC03000
1FE03000
1F386000
1F1FE000
0E07C000
003FE000
007C1000
007C0800
00780C00
00000C00
00000C00
00001C00
00803800
0060F000
003FE000
000F8000
00030000
0000C000
00002000
00001800
00000400
00000200
00000100
ENDCHAR
STARTCHAR C197
ENCODING 197
SWIDTH 672 0
DWIDTH 28 0
BBX 29 27 0 -1
BITMAP
FFFFFFF8
FFFFFFF8
00060000
00060000
00060000
00060000
0F060040
3FC600E0
7EE601C0
7E3607C0
7E1E0CC0
7E0E18C0
3C0E30C0
00066180
0006C180
00078180
00070180
00060180
00000180
00000180
00000180
00000180
00000180
00000180
00000180
00000180
00000080
ENDCHAR
STARTCHAR C198
ENCODING 198
SWIDTH 624 0
DWIDTH 26 0
BBX 27 27 0 -1
BITMAP
FFFFFFE0
FFFFFFE0
0000C000
0000C000
0000C000
03F0C000
0FFCC000
1F8EC000
1F83C000
1F81C000
1F80C000
0F00F800
0001FE00
0007C600
001EC200
0078C200
00E0C200
01C0C200
01F0C200
003CC200
000EC200
0007C200
0003C200
0001C200
0000C200
0000C200
0000C000
ENDCHAR
STARTCHAR C199
ENCODING 199
SWIDTH 528 0
DWIDTH 22 0
BBX 23 27 0 -1
BITMAP
FFFFFE
FFFFFE
000060
000060
000060
000060
07F060
1FFC60
3F0F60
3F01E0
3F00E0
3F0060
1E0060
000060
000060
000060
07F060
1FFC60
3F0F60
3F01E0
3F00E0
3F0060
1E0060
000060
000060
000060
000020
ENDCHAR
STARTCHAR C200
ENCODING 200
SWIDTH 552 0
DWIDTH 23 0
BBX 24 27 0 -1
BITMAP
FFFFFF
FFFFFF
000030
000030
000030
000030
03F030
1FFC30
3F0F30
3F03B0
3F00F0
3F0070
1E0030
000030
0000F0
0003F0
000F30
001C30
007830
007C30
000F30
0003B0
0001F0
0000F0
000070
000030
000030
ENDCHAR
STARTCHAR C201
ENCODING 201
SWIDTH 648 0
DWIDTH 27 0
BBX 28 27 0 -1
BITMAP
FFFFFFF0
FFFFFFF0
0000C300
0000C300
07E0C300
1FF8C300
3F1CC300
3F06C300
3F03C300
3F01C300
1E01C300
0000C300
0000C300
0000C300
0000C300
0007C300
000FC300
000FF300
000FFB00
000FCF00
000FC700
00078300
00000300
00000300
00000300
00000300
00000100
ENDCHAR
STARTCHAR C202
ENCODING 202
SWIDTH 696 0
DWIDTH 29 0
BBX 30 27 0 -1
BITMAP
FFFFFFFC
FFFFFFFC
03E000C0
007000C0
001800C0
000C00C0
000400C0
000600C0
078200C0
0FE200C0
1E7300C0
1E1978C0
0C09FCC0
000DC2C0
000781C0
040700C0
060E00C0
021C00C0
01F800C0
00F000C0
000000C0
000000C0
000000C0
000000C0
000000C0
000000C0
00000040
ENDCHAR
STARTCHAR C203
ENCODING 203
SWIDTH 792 0
DWIDTH 33 0
BBX 33 37 1 0
BITMAP
0100000000
01C0000000
00F0000000
003E000000
000FFE0000
0001FFC000
000001F000
0000003800
0000000800
0000000400
0000000400
0001FFFF80
0003FFFF80
07C3800000
1FF3800000
783B800000
F83F800000
0C77800000
04E3800000
07C3800000
0783807000
0E0380F800
0C0180F800
000180F800
0001807800
0001801800
0001803000
0001803000
0001803000
0001806000
0001806000
000180C000
000181C000
0001838000
00018F0000
0000FE0000
0000780000
ENDCHAR
STARTCHAR C204
ENCODING 204
SWIDTH 648 0
DWIDTH 27 0
BBX 26 27 2 -1
BITMAP
01F81FC0
0FFE1FC0
3E071800
78019800
FC07D800
060F5800
021C3800
03783800
83F01800
83C01800
C7801800
47001800
6407D800
200FF800
300FF800
100FCC00
180FC400
0C0FC600
04078200
06000200
03000200
01800200
00C00600
00700C00
003C3800
000FF000
0003C000
ENDCHAR
STARTCHAR C205
ENCODING 205
SWIDTH 600 0
DWIDTH 25 0
BBX 24 27 2 -1
BITMAP
03F03F
0FFC3F
3C0E30
780330
FC07B0
C60FF0
021C70
033830
03F030
03E030
078030
070030
060030
000030
000030
000030
00FC30
03FF30
07E3B0
07E0F0
07E070
07E030
03C030
000030
000030
000030
000010
ENDCHAR
STARTCHAR C206
ENCODING 206
SWIDTH 600 0
DWIDTH 25 0
BBX 24 27 2 -1
BITMAP
03F03F
0FFC3F
3C0E30
780330
FC07B0
860EF0
023C70
037830
03E030
03C030
078030
0E0030
040030
000030
03F030
0FFC30
3C0E30
780330
FC07B0
860EF0
021C70
037830
03F030
03C030
078030
0F0030
040030
ENDCHAR
STARTCHAR C207
ENCODING 207
SWIDTH 600 0
DWIDTH 25 0
BBX 24 27 2 -1
BITMAP
03F03F
0FFC3F
3C0E30
780330
FC07B0
C60FF0
021C70
033830
03F030
03E030
078030
070030
060030
000030
000030
07E3B0
0FF7F0
181C70
100830
1E0830
1F0030
1F0030
1F0030
0E0030
000030
000030
000010
ENDCHAR
STARTCHAR C208
ENCODING 208
SWIDTH 696 0
DWIDTH 29 0
BBX 30 27 0 -1
BITMAP
FFFFFFFC
FFFFFFFC
03E000C0
007000C0
001800C0
000C00C0
07C400C0
1FE600C0
3C7200C0
3EF200C0
03CB00C0
038178C0
0701FCC0
0601C2C0
000381C0
040700C0
060E00C0
021C00C0
01F800C0
00F000C0
000000C0
000000C0
000000C0
000000C0
000000C0
000000C0
00000040
ENDCHAR
STARTCHAR C209
ENCODING 209
SWIDTH 672 0
DWIDTH 28 0
BBX 29 28 0 -2
BITMAP
FFFFFFF8
FFFFFFF8
07000000
01C00000
00603C00
00103F00
00183380
003830C0
00703040
00E03040
01C03040
00E03040
003833C0
000C37C0
000237C0
00013380
0000B000
07E07000
0FF77000
181FF000
1008F000
17087000
1F803000
1F803000
0F803000
07003000
00003000
00003000
ENDCHAR
STARTCHAR C210
ENCODING 210
SWIDTH 696 0
DWIDTH 29 0
BBX 30 26 0 0
BITMAP
FFFFFFFC
FFFFFFFC
00180000
00780000
01F80000
079E00C0
1E1FFFE0
1E19FFE0
079800E0
41D800C0
40F881C0
4079C1C0
403F6180
603E2180
20183180
30001180
10001180
18001180
0C003180
07002180
03C06080
00FFC080
003F80C0
000000C0
00000040
00000040
ENDCHAR
STARTCHAR C211
ENCODING 211
SWIDTH 648 0
DWIDTH 27 0
BBX 28 27 0 -1
BITMAP
FFFFFFF0
FFFFFFF0
000C0000
000C0000
003C0000
01FC0000
07CC0000
1E0C01C0
380C0380
3E0C0F80
070C1980
03CC3180
00EC6180
007CC300
003D8300
001F0300
000E0300
000C0300
00000300
00000300
00000300
00000300
00000300
00000300
00000300
00000300
00000100
ENDCHAR
STARTCHAR C212
ENCODING 212
SWIDTH 648 0
DWIDTH 27 0
BBX 28 27 0 -1
BITMAP
FFFFFFF0
FFFFFFF0
00006000
0003E000
000FE000
007C6000
01F06000
07806000
1E006000
38007F00
1C01FF00
0E07E100
071E6100
03F86100
01E06100
03806100
07806100
07E06100
00706100
003C6100
000E6100
00076100
0003E100
0001E100
0000E100
0000E100
0000E000
ENDCHAR
STARTCHAR C213
ENCODING 213
SWIDTH 528 0
DWIDTH 22 0
BBX 23 27 0 -1
BITMAP
FFFFFE
FFFFFE
000060
0001E0
000FE0
007E60
01F060
078060
1E0060
380060
1C01E0
0E0FE0
073E60
03F060
01C060
078060
0F0060
0FC060
00F060
003860
001E60
000760
0003E0
0001E0
0000E0
000060
000060
ENDCHAR
STARTCHAR C214
ENCODING 214
SWIDTH 528 0
DWIDTH 22 0
BBX 23 27 0 -1
BITMAP
FFFFFE
FFFFFE
000060
0000E0
0007E0
003F60
00F860
03C060
070060
07E060
00F860
003C60
000F60
0003E0
0001E0
07C0E0
0FE760
183FE0
1018E0
1E0860
1F0060
1F0060
1F0060
0E0060
000060
000060
000020
ENDCHAR
STARTCHAR C215
ENCODING 215
SWIDTH 696 0
DWIDTH 29 0
BBX 30 27 0 -1
BITMAP
FFFFFFFC
FFFFFFFC
00000000
00000000
00000000
00000000
00000300
00000780
003C0EC0
0C7E1C40
087E3840
187E7040
107FE040
103FC040
100F0040
10000040
18000040
08000040
0C000040
06000040
03800040
01FFFE40
007FFFC0
000001C0
00000040
00000040
00000040
ENDCHAR
STARTCHAR C216
ENCODING 216
SWIDTH 600 0
DWIDTH 25 0
BBX 26 28 0 -2
BITMAP
FFFFFFC0
FFFFFFC0
00000000
00780000
10FC3000
10FC7800
18FDE800
08FFCC00
0C7F0400
04000400
06000400
03000C00
01801C00
00E07800
007FF800
001FD800
00001800
03F01800
07F9D800
0C0FF800
08063800
0F041800
0F801800
0F801800
0F801800
07001800
00001800
00001800
ENDCHAR
STARTCHAR C217
ENCODING 217
SWIDTH 552 0
DWIDTH 23 0
BBX 24 27 0 -1
BITMAP
FFFFFF
FFFFFF
060030
030018
03000C
1F000C
3F800C
3FE00C
3F7018
3F1C38
1E0FF0
0003F0
000030
000030
000030
000030
03F830
0FFE30
1F87B0
1F80F0
1F8070
1F8030
0F0030
000030
000030
000030
000010
ENDCHAR
STARTCHAR C218
ENCODING 218
SWIDTH 1008 0
DWIDTH 42 0
BBX 43 27 0 -1
BITMAP
FFFF00FC07E0
FFFF83FF07E0
0600CF038600
03007C00C600
1F007E00E600
3F807F01F600
3FC061839E00
3F70C08F0E00
3F3FC0DE0600
1E0F80F80600
000000F00600
000001E00600
000003C00600
000003000600
000000000600
000000000600
000000000600
000000000600
000000000600
000000000600
000000000600
000000000600
000000000600
000000000600
000000000600
000000000600
000000000200
ENDCHAR
STARTCHAR C219
ENCODING 219
SWIDTH 936 0
DWIDTH 39 0
BBX 40 27 0 -1
BITMAP
FFFFFFFFFF
FFFFFFFFFF
0600C00000
0300600000
1F00600000
3F00600780
3F806007E0
3FE0C00670
3F71E00618
1E1FB00608
000F080608
00000C0608
00000C0608
00001C0678
00003806F8
00007006F8
0000E00670
0000E00600
0000780600
00000E0600
0000038600
000000C600
0000002600
0000001600
0000000E00
0000000E00
0000000600
ENDCHAR
STARTCHAR C220
ENCODING 220
SWIDTH 552 0
DWIDTH 23 0
BBX 24 27 0 -1
BITMAP
FFFFFF
FFFFFF
060038
030018
03000C
1F000C
3F800C
3FE00C
3F7018
3F1C38
1E0FF0
0003F0
000070
0003F0
000FB0
003C30
00F030
01C030
01F030
003C30
000F30
0003B0
0001F0
0000F0
000070
000030
000030
ENDCHAR
STARTCHAR C221
ENCODING 221
SWIDTH 648 0
DWIDTH 27 0
BBX 28 27 0 -1
BITMAP
FFFFFFF0
FFFFFFF0
03000C00
01800600
01800300
0F800300
1FE00300
1FF00300
1F9C0600
1F8E0E00
0F03FC00
0001F800
10380800
107C1C00
107C3E00
187CF200
087FE300
0C3F8100
04000100
06000100
02000300
03000300
01800600
00C00E00
00703C00
003FF800
000FE000
ENDCHAR
STARTCHAR C222
ENCODING 222
SWIDTH 624 0
DWIDTH 26 0
BBX 27 27 0 -1
BITMAP
FFFFFFE0
FFFFFFE0
03001800
01800C00
01800C00
0F800C00
1FC00C00
1FF00C00
1FB81800
1F8C3800
0F07F000
0003F800
00783C00
08FC7600
08FCE200
18FFC200
10FF8200
107E0200
18000200
08000200
0C000200
07000200
03FFFA00
00FFFE00
00000600
00000200
00000200
ENDCHAR
STARTCHAR C223
ENCODING 223
SWIDTH 696 0
DWIDTH 29 0
BBX 30 27 0 -1
BITMAP
FFFFFFFC
FFFFFFFC
060018C0
030018C0
03000CC0
1F000CC0
3F800CC0
3FE00CC0
3F7018C0
3F1C38C0
1E0FF0C0
0003F0C0
000030C0
000018C0
000018C0
0000F0C0
0001FCC0
0001FEC0
0001FBC0
0001F9C0
0000F0C0
000000C0
000000C0
000000C0
000000C0
000000C0
00000040
ENDCHAR
STARTCHAR C224
ENCODING 224
SWIDTH 576 0
DWIDTH 24 0
BBX 25 27 0 -1
BITMAP
FFFFFF80
FFFFFF80
06001800
03000C00
03000600
1F000600
3FC00600
3FE00600
3F380C00
3F1C1C00
1E07F800
0003F800
00001800
00001800
00001800
03F1D800
07FBF800
0C0E3800
08041800
0F041800
0F801800
0F801800
0F801800
07001800
00001800
00001800
00000800
ENDCHAR
STARTCHAR C225
ENCODING 225
SWIDTH 648 0
DWIDTH 27 0
BBX 28 27 0 -1
BITMAP
FFFFFFF0
FFFFFFF0
00006000
00006000
00006000
0FC66000
1FEF6000
3039E000
2010E000
2E10E000
3F006000
3F006000
1F03F800
0E0FFE00
003C6700
00F06380
01C06180
03806180
03E06780
00786F80
001E6F80
00076F80
0003E700
0001E000
0000E000
0000E000
00006000
ENDCHAR
STARTCHAR C226
ENCODING 226
SWIDTH 600 0
DWIDTH 25 0
BBX 26 27 0 -1
BITMAP
FFFFFFC0
FFFFFFC0
00000C00
00000C00
00000C00
01E1CC00
07FBEC00
0E1E3C00
18061C00
17020C00
1F800C00
1F800C00
0F800C00
07FE0C00
03FF8C00
0780CC00
0E002C00
0FC01C00
0FE01C00
04100C00
00080C00
000C0C00
000C0C00
001C0C00
00380C00
00180C00
00000400
ENDCHAR
STARTCHAR C227
ENCODING 227
SWIDTH 600 0
DWIDTH 25 0
BBX 26 30 0 -4
BITMAP
FFFFFFC0
FFFFFFC0
00001800
00001800
07C39800
0FF7D800
183C7800
100C3800
1E041800
1F001800
1F001800
1F001800
0E3E1800
00FF9800
00E1DC00
0DF07C00
0DF83600
0C8C1600
0C0C7E00
061CFE00
0638FC00
0630FC00
0300FE00
03007B00
01800300
00C00300
00700600
003C1E00
000FFC00
0003F000
ENDCHAR
STARTCHAR C228
ENCODING 228
SWIDTH 792 0
DWIDTH 33 0
BBX 34 37 0 0
BITMAP
0080000000
00E0000000
0078000000
001F000000
0007FF0000
0000FFE000
000000F800
0000001C00
0000000400
0000000200
0000000200
FFFFFFFFC0
FFFFFFFFC0
0001800000
0001800000
0001800000
078D800000
0FDF800000
1873800000
1023800000
1E21803800
1F01807C00
1F01807C00
1F01807C00
0E01803C00
0001800C00
0001801800
0001801800
0001803000
0001803000
0001806000
000180E000
000181C000
0001838000
0000CF0000
00007E0000
0000380000
ENDCHAR
STARTCHAR C229
ENCODING 229
SWIDTH 720 0
DWIDTH 30 0
BBX 31 25 0 1
BITMAP
FFFFFFFE
FFFFFFFE
0000C000
07CEC000
0FFFC000
1831C000
1010C000
1E10C000
1F00C180
1F00C380
1F00C6C0
0E00DC40
0100F840
0100E060
01804020
00800020
00800020
00C00020
00400060
00600040
003000C0
00180180
000E0700
0007FE00
0001F800
ENDCHAR
STARTCHAR C230
ENCODING 230
SWIDTH 600 0
DWIDTH 25 0
BBX 26 26 0 0
BITMAP
FFFFFFC0
FFFFFFC0
00000C00
01F00C00
03F9EC00
060FFC00
0C061C00
0B820C00
0FC20C00
0FC00C00
0FC00C00
07800C00
00000C00
00000C00
00FE0C00
07FF0C00
1F01CC00
3E01EC00
3F03FC00
01871C00
009E0C00
00FC0C00
00F00C00
01E00C00
03800C00
01000C00
ENDCHAR
STARTCHAR C231
ENCODING 231
SWIDTH 600 0
DWIDTH 25 0
BBX 26 27 0 -1
BITMAP
FFFFFFC0
FFFFFFC0
00000C00
00000C00
00000C00
00000C00
03E00C00
07F9CC00
0C1FEC00
18063C00
10061C00
17020C00
1F800C00
1F800C00
0F803C00
0701FC00
0007CC00
000F0C00
003C0C00
003E0C00
00078C00
0001EC00
00007C00
00003C00
00001C00
00000C00
00000C00
ENDCHAR
STARTCHAR C232
ENCODING 232
SWIDTH 696 0
DWIDTH 29 0
BBX 30 27 0 -1
BITMAP
FFFFFFFC
FFFFFFFC
000030C0
000030C0
000030C0
07E3B0C0
0FF7F0C0
181C70C0
100830C0
1E0830C0
1F0030C0
1F0030C0
1F0030C0
0E0030C0
000030C0
000030C0
0000F0C0
0001F8C0
0001FCC0
0001FEC0
0001FBC0
0001F9C0
0000F0C0
000000C0
000000C0
000000C0
00000040
ENDCHAR
STARTCHAR C233
ENCODING 233
SWIDTH 624 0
DWIDTH 26 0
BBX 27 27 0 -1
BITMAP
FFFFFFE0
FFFFFFE0
00000600
00000600
00000600
01F0E600
07FDF600
0E0F1E00
18020E00
17020600
1F800600
1F800600
0F800600
07000600
00000600
01F0E600
07FDF600
0E0F1E00
18020E00
17020600
1F800600
1F800600
0F800600
07000600
00000600
00000600
00000200
ENDCHAR
STARTCHAR C234
ENCODING 234
SWIDTH 840 0
DWIDTH 35 0
BBX 36 27 0 0
BITMAP
0000400000
F0007FFFF0
FC1E7FFFF0
1F7F600000
03F1F00000
01E0F00000
07F8780000
0FFC6C0000
1FFE670000
1FFE63C000
1FFE60F000
1E1E603E00
0000600F00
0000600300
0000600300
0000600600
0000600600
0000600600
0000600C00
0000601C00
0000603800
0000607000
000060E000
000063C000
0000378000
00003E0000
00001C0000
ENDCHAR
STARTCHAR C235
ENCODING 235
SWIDTH 888 0
DWIDTH 37 0
BBX 38 28 0 -1
BITMAP
0000100000
F0001FFFFC
FE1F1FFFFC
1F3F980000
01F0D80000
00F0780000
03FC3C0000
07FE1BBE00
0FFF18FF00
0FFF183080
0FFF1830C0
0F0F1870C0
00001860C0
000018E1C0
00000FC180
0000078380
0000000700
0000003E00
000003FC00
000001E000
0000006000
0000003000
0000000800
0000000400
0000000200
0000000100
0000000080
0000000040
ENDCHAR
STARTCHAR C236
ENCODING 236
SWIDTH 600 0
DWIDTH 25 0
BBX 26 28 0 -1
BITMAP
00000800
F0000FC0
FE0F8FC0
1F9FCC00
01F86C00
00F03C00
03FC1C00
07FE0C00
0FFF0C00
0FFF0C00
0FFF0C00
0F0F0C00
00000C00
00000C00
00000C00
00000C00
00000C00
003F0C00
00FFCC00
01F8EC00
01F83C00
01F81C00
01F80C00
00F00C00
00000C00
00000C00
00000C00
00000400
ENDCHAR
STARTCHAR C237
ENCODING 237
SWIDTH 720 0
DWIDTH 30 0
BBX 31 28 0 -1
BITMAP
00001000
F0001FFE
FC1F1FFE
1F3F9860
03F0D860
01F07860
07F83860
0FFC1860
1FFE1860
1FFE1860
1FBE1860
1E1E1860
00001860
00001860
00001860
00001860
00001860
0000F860
0001F860
0001FE60
0001FF60
0001F9E0
0001F8E0
0000F060
00000060
00000060
00000060
00000020
ENDCHAR
STARTCHAR C238
ENCODING 238
SWIDTH 600 0
DWIDTH 25 0
BBX 26 28 0 -1
BITMAP
00000800
F0000FC0
FE0F8FC0
1F9FCC00
01F86C00
00F03C00
03FC1C00
07FE0C00
0FFF0C00
0FFF0C00
0FFF0C00
0F0F0C00
00000C00
00000C00
00000C00
00000C00
01F8EC00
03FDFC00
06071C00
04020C00
07820C00
07C00C00
07C00C00
07C00C00
03800C00
00000C00
00000C00
00000400
ENDCHAR
STARTCHAR C239
ENCODING 239
SWIDTH 600 0
DWIDTH 25 0
BBX 26 28 0 -1
BITMAP
00000800
F0000FC0
FE0F8FC0
1F9FCC00
01F86C00
00F03C00
03FC1C00
07FE0C00
0FFF0C00
0FFF0C00
0FFF0C00
0F0F0C00
00000C00
00000C00
00000C00
00003C00
0001FC00
0007CC00
000F0C00
003C0C00
003E0C00
00078C00
0001EC00
00007C00
00003C00
00001C00
00000C00
00000C00
ENDCHAR
STARTCHAR C240
ENCODING 240
SWIDTH 600 0
DWIDTH 25 0
BBX 26 27 0 -1
BITMAP
FFFFFFC0
FFFFFFC0
00FF0000
03C18000
07818000
0EC18000
0C638000
1C330000
18170000
180FC000
083FF000
0FFB3800
07E31C00
03830E00
0F030600
1C031E00
1F033E00
03833E00
01E33E00
00731C00
003B0000
001F0000
000F0000
00070000
00070000
00030000
00030000
ENDCHAR
STARTCHAR C241
ENCODING 241
SWIDTH 816 0
DWIDTH 34 0
BBX 35 29 0 -3
BITMAP
FFFFFFFFE0
FFFFFFFFE0
00FF800000
03C0C00000
0780C00000
0EC0C00000
0C61C00000
1C31800000
181BFC0000
180FFE0000
083F830000
0FFE030000
07CC030000
001C037C00
021F03FE00
061F83BF00
041F833F00
040F833F00
0407033F00
0400031E00
0400030000
0600030000
0200030000
0300030000
01FF830000
00FFFF0000
00007F0000
0000030000
0000010000
ENDCHAR
STARTCHAR C242
ENCODING 242
SWIDTH 528 0
DWIDTH 22 0
BBX 23 38 0 -1
BITMAP
800000
C00000
700000
3E0000
0FFC00
01FF80
0003C0
000060
000020
000010
000010
FFFFFE
FFFFFE
00FF00
03C180
070180
0F8180
1CC180
186380
383300
301700
300E00
301C00
10F800
1FE000
0F81C0
0703E0
0603E0
0C03E0
0C01E0
0C00C0
0C00C0
0C00C0
060180
060380
030700
01FE00
00FC00
ENDCHAR
STARTCHAR C243
ENCODING 243
SWIDTH 600 0
DWIDTH 25 0
BBX 26 39 0 1
BITMAP
000C0000
001C0000
00180000
00180000
00180000
00180000
00180000
00180000
00180000
00180000
00180000
00080000
000C0000
000C0000
FFFFFFC0
FFFFFFC0
01FE0000
03870000
07068000
0F06C000
0D864000
1CCE2000
184E1000
183C1800
183C0800
08780C00
0FF80C00
07B00C00
00700C00
00E00C00
01C01C00
03801800
07003800
06003000
06007000
0200E000
0183C000
00FF8000
003E0000
ENDCHAR
STARTCHAR C244
ENCODING 244
SWIDTH 792 0
DWIDTH 33 0
BBX 31 27 0 -1
BITMAP
FFFFE000
FFFFE0F0
380063F8
0E00670C
03006C04
00807802
00407002
00206002
00786034
00EC607C
01C26078
0381603C
0700E004
0E007002
1C007802
1F006C02
03C06604
00E0638C
003861F8
001C6070
00066000
00036000
0001E000
0000E000
0000E000
00006000
00002000
ENDCHAR
STARTCHAR C245
ENCODING 245
SWIDTH 888 0
DWIDTH 37 0
BBX 38 27 0 -1
BITMAP
FFF80FC0FC
FFFC3FF0FC
0786F038C0
0E07C00CC0
1D07E00EC0
198FF01EC0
38CC1879C0
307C08F1C0
30380DC0C0
10F00F80C0
1FC00F00C0
0F001E00C0
00001C00C0
00003800C0
00001000C0
00000000C0
00000000C0
00000000C0
00000000C0
00000000C0
00000000C0
00000000C0
00000000C0
00000000C0
00000000C0
00000000C0
0000000040
ENDCHAR
STARTCHAR C246
ENCODING 246
SWIDTH 816 0
DWIDTH 34 0
BBX 35 27 0 -1
BITMAP
FFFFFFFFE0
FFFFFFFFE0
01FC000000
0786000000
0F06000000
1D8600F000
18CE00FC00
384C00CE00
303E00C300
303B00C100
10F080C100
1FC0C0C100
0F01C0C100
000380CF00
000300DF00
000700DF00
000E00CE00
000E00C000
000780C000
0000E0C000
000038C000
00000CC000
000002C000
000001C000
000001C000
000000C000
0000004000
ENDCHAR
STARTCHAR C247
ENCODING 247
SWIDTH 600 0
DWIDTH 25 0
BBX 26 27 0 -1
BITMAP
FFFFFFC0
FFFFFFC0
00FF0C00
03C18C00
07818C00
0EC18C00
0C638C00
1C330C00
18170C00
180E0C00
083C0C00
0FFC0C00
07CC0C00
000C0C00
007C0C00
00FF0C00
00FFCC00
00FC6C00
00FC3C00
00FC1C00
00781C00
00000C00
00000C00
00000C00
00000C00
00000C00
00000400
ENDCHAR
STARTCHAR C248
ENCODING 248
SWIDTH 744 0
DWIDTH 31 0
BBX 32 27 0 -1
BITMAP
FFFFFFFF
FFFFFFFF
00380300
00380100
007C0180
00660180
00E30180
21C1C380
1F807F00
0F001E00
00000700
00003FC0
0000FEE0
0001E670
00078630
000E0638
001C0618
001F0618
0003C678
0000E6F8
000076F8
00003E70
00001E00
00000E00
00000E00
00000600
00000600
ENDCHAR
STARTCHAR C249
ENCODING 249
SWIDTH 840 0
DWIDTH 35 0
BBX 36 29 0 -3
BITMAP
FFFFFFFFF0
FFFFFFFFF0
0038060000
0038020000
0038030000
007C030000
0066030000
18E3870000
0FC1FE0000
07807C0000
0001FE0000
0003C30000
0007030000
0006033E00
020E03FF00
020F83DF80
060FC31F80
040FC31F80
0407831F80
0400030F00
0600030000
0200030000
0300030000
01C0030000
00FFFB0000
003FFF0000
0000070000
0000030000
0000010000
ENDCHAR
STARTCHAR C250
ENCODING 250
SWIDTH 744 0
DWIDTH 31 0
BBX 32 32 0 -6
BITMAP
FFFFFFFF
FFFFFFFF
00380300
00380100
007C0180
00660180
00E30180
21C1C380
1F807F00
0F001E00
00000600
00000F80
00007FE0
0001F670
00078638
001E0618
001F8678
0001E6F8
000076F8
00003EF8
00001E70
00F87E00
01FEFE00
03078E00
02018600
02E08600
03F00600
03F00600
01F00600
00E00600
00000600
00000600
ENDCHAR
STARTCHAR C251
ENCODING 251
SWIDTH 792 0
DWIDTH 33 0
BBX 34 27 0 -1
BITMAP
FFFFC00FC0
FFFFE00FC0
00E0300C00
00E0100C00
00F0180C00
00D0180C00
01D8180C00
318C380C00
1F87F00C00
0F01F80C00
00001E0C00
00001F0C00
0007318C00
000FB18C00
000FE18C00
000FC18C00
0007830C00
00000E0C00
00003C0C00
0000700C00
00007C0C00
00001F0C00
000003CC00
000000EC00
0000003C00
0000001C00
0000000400
ENDCHAR
STARTCHAR C252
ENCODING 252
SWIDTH 816 0
DWIDTH 34 0
BBX 35 37 0 0
BITMAP
00C0000000
00E0000000
0038000000
001F800000
0007FF8000
00007FF000
0000007C00
0000000E00
0000000200
0000000100
0000000100
FFFFFFFFE0
FFFFFFFFE0
1F00300000
0180300000
00C0300000
0040300000
0040300000
0060300000
002E300000
003F301C00
0038B03E00
0070703E00
20E0703E00
11C0301E00
0F80300600
0700300C00
0000300C00
0000300C00
0000301800
0000301800
0000303000
0000307000
000030E000
000031C000
00001F8000
00000F0000
ENDCHAR
STARTCHAR C253
ENCODING 253
SWIDTH 672 0
DWIDTH 28 0
BBX 29 27 0 -1
BITMAP
FFFFFFF8
FFFFFFF8
000C0080
001E00C0
001A0060
001B0060
00398060
0030C060
287070E0
3FE01FC0
13C0FF80
1801FE00
0C01FB00
0401F980
0601F880
0200F0C0
03000040
01800040
00C00040
00400040
00600040
003000C0
00180080
000C0180
00070700
0003FE00
0000F800
ENDCHAR
STARTCHAR C254
ENCODING 254
SWIDTH 600 0
DWIDTH 25 0
BBX 26 29 0 -3
BITMAP
FFFFFFC0
FFFFFFC0
00E01800
00E00800
00F00C00
00D00C00
01D80C00
018C0C00
23861C00
3F03F800
0E00F000
0007F000
003FF800
087C0C00
0CE00C00
0CF00C00
0DF1D800
0CF3F800
0663F000
0603F000
0603F800
0301D800
03000C00
01800C00
01800C00
00C01800
00707800
003FF000
000FC000
ENDCHAR
STARTCHAR C255
ENCODING 255
SWIDTH 648 0
DWIDTH 27 0
BBX 28 29 0 -3
BITMAP
FFFFFFF0
FFFFFFF0
00380600
00380200
00380300
007C0300
00660300
18E38700
0FC1FE00
0780FC00
0003FE00
00078300
000E0300
000C0300
081C0300
081F0300
181F8300
101F8300
100F0300
10000300
18000300
08000300
0C000300
07000300
03FFFB00
00FFFF00
00000700
00000300
00000100
ENDCHAR
ENDFONT
